<svg fill="none" xmlns="http://www.w3.org/2000/svg" viewBox="0 0 218 49"><g clip-path="url(#a)"><path d="M18.0607 22.8437c-1.707.7381-3.6442 1.575-6.1547 1.575a11.5431 11.5431 0 0 1-3.1072-.4327l1.7364 18.0067a3.0202 3.0202 0 0 0 .951 1.9659 2.9624 2.9624 0 0 0 2.018.7953s2.4621.1291 3.2836.1291c.8842 0 3.5355-.1291 3.5355-.1291a2.963 2.963 0 0 0 2.0176-.7955 3.0205 3.0205 0 0 0 .9507-1.9657l1.8598-19.8981c-.8311-.2867-1.6699-.4772-2.6155-.4772-1.6354-.0007-2.953.5683-4.4752 1.2263Z" fill="#FD0"/><path d="m33.1811 13.4993-.2614-1.3322c-.2347-1.1953-.7672-2.3247-1.9819-2.7567-.3894-.1382-.8312-.1976-1.1297-.4836-.2986-.286-.3868-.7304-.4558-1.1424-.1279-.7561-.2481-1.513-.3792-2.2678-.1131-.649-.2027-1.378-.4974-1.9734-.3835-.7995-1.1795-1.267-1.971-1.5763a11.2764 11.2764 0 0 0-1.2396-.3875c-1.9774-.5269-4.0566-.7206-6.0909-.831a50.6297 50.6297 0 0 0-7.326.1227c-1.8131.1666-3.7227.368-5.4457 1.0015-.6297.2318-1.2786.5102-1.7575 1.0016-.5875.6037-.7793 1.5375-.3503 2.2904.305.5347.8215.9124 1.3694 1.1624.7136.322 1.459.567 2.2236.731 2.1289.4752 4.3339.6619 6.5089.7413a49.0732 49.0732 0 0 0 7.2243-.2383 40.6683 40.6683 0 0 0 1.7767-.237c.6962-.1078 1.1431-1.0274.9379-1.668-.2455-.7658-.9053-1.0629-1.6514-.9473a29.542 29.542 0 0 1-.3292.0498l-.0793.0116a45.5383 45.5383 0 0 1-.7582.0904A39.827 39.827 0 0 1 19.9472 5c-1.1751.0826-2.3534.1207-3.531.1227-1.1572 0-2.3149-.033-3.4696-.1098a43.7309 43.7309 0 0 1-1.5766-.133 37.8644 37.8644 0 0 1-.7141-.0814l-.2263-.029-.0492-.0072-.2346-.0342c-.4795-.073-.959-.157-1.4334-.2583a.2154.2154 0 0 1-.1214-.0762.2191.2191 0 0 1 0-.2724.2154.2154 0 0 1 .1214-.0763h.009a23.042 23.042 0 0 1 1.2409-.2299c.1385-.022.2774-.0435.4168-.0646h.0038c.2602-.0174.5217-.0645.7807-.0955a49.1539 49.1539 0 0 1 6.7825-.2415c1.099.0323 2.1974.0975 3.2912.2098.2353.0246.4693.0504.7033.0795.0895.011.1796.0238.2698.0348l.1816.0265a24.9698 24.9698 0 0 1 1.5797.29c.7761.1704 1.7729.226 2.1181 1.0848.1099.2725.1598.5754.2206.8614l.0773.3649a.1353.1353 0 0 1 .0045.02c.1828.861.3659 1.722.5492 2.583a.4765.4765 0 0 1-.0746.3704.4689.4689 0 0 1-.3193.1972h-.0051l-.1119.0155-.1106.0149c-.3503.046-.7011.089-1.0523.129a67.257 67.257 0 0 1-2.0784.2067 72.05 72.05 0 0 1-4.1447.228 74.2623 74.2623 0 0 1-2.1155.0265 72.7125 72.7125 0 0 1-8.397-.4934 87.315 87.315 0 0 1-.9052-.1143c.234.0303-.17-.0232-.2519-.0349a54.034 54.034 0 0 1-.5753-.0845c-.6439-.0976-1.2838-.2177-1.9263-.323-.7768-.129-1.5197-.0645-2.2223.323a3.2502 3.2502 0 0 0-1.3381 1.4012c-.303.6328-.3932 1.3218-.5287 2.0018-.1356.68-.3466 1.4116-.2666 2.1097.172 1.5065 1.2147 2.7309 2.7145 3.0047 1.411.2583 2.8296.4674 4.2521.6457a77.8007 77.8007 0 0 0 18.206.1059.9493.9493 0 0 1 .4211.0484.9582.9582 0 0 1 .3593.227.9693.9693 0 0 1 .2273.3612.9774.9774 0 0 1 .051.425l-.1419 1.3935-.858 8.447a6739.998 6739.998 0 0 1-.9008 8.8693l-.2557 2.4971c-.0819.8195-.0934 1.6648-.2474 2.4745-.243 1.2734-1.0965 2.0555-2.3419 2.3415a16.176 16.176 0 0 1-3.4766.4107c-1.2972.0071-2.5937-.051-3.8909-.0439-1.3848.0078-3.0809-.1214-4.1498-1.1623-.9392-.9144-1.069-2.346-1.1969-3.5839a2804.539 2804.539 0 0 1-.507-4.9161l-.9397-9.1108-.608-5.895c-.0103-.0976-.0205-.1938-.03-.2919-.073-.7033-.5659-1.3916-1.3426-1.3561-.665.0297-1.4206.6005-1.3426 1.3561l.4507 4.3704.9321 9.0404c.2655 2.5679.5304 5.1363.7947 7.7051.0512.492.0991.9854.1528 1.4774.2922 2.6889 2.3252 4.138 4.8429 4.5461 1.4704.2389 2.9766.288 4.4688.3125 1.9129.031 3.8449.1053 5.7264-.2447 2.7881-.5166 4.88-2.397 5.1785-5.3139l.2558-2.5268c.2834-2.7861.5664-5.5725.849-8.3591l.9244-9.1051.4239-4.1728a.9728.9728 0 0 1 .2467-.5548.9567.9567 0 0 1 .5256-.2969c.7972-.1569 1.5593-.4249 2.1264-1.0377.9027-.9758 1.0823-2.2479.7633-3.5303Zm-29.9899.9001c.0122-.0058-.0102.0995-.0198.1486-.002-.0743.002-.1401.0198-.1486Zm.0774.6045c.0064-.0045.0255.0213.0454.0522-.03-.0283-.0493-.0496-.046-.0522h.0006Zm.076.1014c.0275.0471.0422.0768 0 0Zm.1528.1252h.0039c0 .0046.007.0091.0096.0136a.1021.1021 0 0 0-.014-.0136h.0005Zm26.7569-.1872c-.2864.275-.7179.4029-1.1444.4668-4.7821.7168-9.6339 1.0797-14.4685.9196-3.4599-.1195-6.8835-.5076-10.309-.9964-.3356-.0478-.6994-.1098-.9302-.3597-.4348-.4714-.2212-1.4206-.108-1.9902.1035-.5217.3017-1.2172.916-1.2915.959-.1136 2.0727.2951 3.0215.4404a56.6163 56.6163 0 0 0 3.4396.423c4.9112.452 9.905.3816 14.7945-.2796a61.0598 61.0598 0 0 0 2.664-.4217c.7883-.1427 1.6623-.4107 2.1386.4139.3267.5618.3701 1.3135.3196 1.9483a1.0905 1.0905 0 0 1-.3343.7271h.0006Z" fill="#0D0C22"/><path fill-rule="evenodd" clip-rule="evenodd" d="M59.2585 28.4634c-.2789.5383-.6631 1.0071-1.1513 1.4049-.4888.3981-1.0587.7222-1.7104.9718-.6512.2501-1.307.418-1.966.5035-.6595.0859-1.2997.0785-1.9198-.0235-.6205-.1013-1.1484-.308-1.5823-.6205l.4889-5.1283c.4496-.156 1.0154-.3161 1.6984-.4801a15.4148 15.4148 0 0 1 2.1055-.3512c.7214-.0704 1.4038-.062 2.0482.0235.6428.0858 1.1513.2926 1.5235.6206.2014.1872.3727.3901.5122.6087.1395.2187.2249.4451.2561.6792.077.6556-.0234 1.2528-.303 1.7914Zm-7.0968-10.9241c.326-.2029.7175-.3826 1.175-.5389a7.2668 7.2668 0 0 1 1.408-.3277c.4804-.0621.9499-.0704 1.408-.0235.457.047.8609.1756 1.2096.3862.3493.211.609.5155.7792.9133.1708.3984.2176.902.1401 1.5107-.062.4839-.2525.8939-.57 1.2293-.318.336-.7063.6167-1.1633.8431-.4581.2267-.9427.4062-1.4543.5383-.5122.1331-1.0051.2309-1.4778.293-.4731.0626-.8843.1019-1.233.117-.3493.0158-.5783.0235-.6867.0235l.4652-4.9643Zm9.6099 7.6104c-.2483-.546-.5814-1.0261-1.0005-1.4403-.4184-.4135-.9155-.7138-1.4891-.9013.2483-.2029.4924-.5228.7328-.9601.2405-.4368.4461-.9133.6169-1.4284.1702-.5155.2867-1.0342.3487-1.5574.0619-.5228.0385-.9718-.0692-1.3467-.2645-.9364-.6793-1.6702-1.2456-2.2011-.5663-.5305-1.2253-.8975-1.9774-1.1007-.7527-.2023-1.5824-.2456-2.4896-.1286-.9078.1171-1.8348.3473-2.7806.6908 0-.0779.0077-.1599.0233-.2458.015-.0855.023-.1755.023-.2694 0-.2341-.1163-.4367-.3489-.6087-.2326-.1718-.5004-.273-.8026-.3045-.3026-.0309-.5975.035-.8844.199-.2872.164-.485.4649-.5933.9014a676.3393 676.3393 0 0 0-.3723 4.379 563.1194 563.1194 0 0 1-.3956 4.5902 3190.4056 3190.4056 0 0 1-.4189 4.6012 581.4807 581.4807 0 0 1-.4188 4.3907c.0466.4215.163.7495.3492.9836.186.2344.4032.375.6515.4216.2479.0469.508.0035.7793-.129.2713-.1321.508-.363.7099-.6907.6202.3434 1.3184.566 2.0942.6676.7756.1013 1.5626.1013 2.3616 0 .7984-.1016 1.586-.2927 2.3615-.574.7756-.2807 1.4814-.6322 2.1174-1.0535.6361-.4215 1.1712-.9019 1.6058-1.4402.4341-.5389.7209-1.1203.8609-1.7445.1395-.6402.178-1.2801.1161-1.9204-.0619-.6398-.2171-1.2328-.4653-1.7798ZM84.4699 37.5141c-.0854.5152-.2062 1.0576-.3608 1.6277-.1556.5695-.3378 1.0888-.547 1.5573-.2093.4682-.4419.8464-.6975 1.1355-.2566.2888-.532.41-.8266.3633-.2326-.0318-.3799-.18-.4419-.445-.0619-.2659-.0619-.5936 0-.9836.062-.3904.1822-.8316.3607-1.3233.178-.4916.3956-.9797.6512-1.4634.2566-.4842.547-.9483.8729-1.3933.3258-.4448.6667-.8158 1.0238-1.1123.0776.0936.1124.3276.1046.7026-.0083.3746-.0546.8196-.1394 1.3345Zm7.8877-10.163c-.2092-.2341-.4653-.3666-.7677-.3981-.3024-.0311-.609.1406-.9192.5152-.202.3746-.4576.7338-.7678 1.0772-.3107.3437-.6324.6557-.9661.9367-.3331.2808-.6511.5232-.9535.7258-.3024.2032-.5393.3514-.71.445-.0619-.4994-.0968-1.038-.1046-1.6158a26.1864 26.1864 0 0 1 .0349-1.7561 22.226 22.226 0 0 1 .2909-2.5525 16.8011 16.8011 0 0 1 .6397-2.5294c0-.4367-.101-.792-.3024-1.0653-.2019-.2731-.4461-.4451-.7329-.5152-.2873-.0701-.5814-.0312-.8843.117-.3024.1486-.5622.4181-.7792.8078a159.515 159.515 0 0 1-.6397 1.7329 31.348 31.348 0 0 1-.8146 1.9555 19.7743 19.7743 0 0 1-1.0124 1.9319c-.3722.6247-.7792 1.1791-1.2216 1.6628-.4419.4839-.9229.8627-1.4424 1.1357-.5199.2733-1.0816.3943-1.6869.363-.2795-.0781-.481-.2887-.6054-.6324-.1239-.3432-.1978-.7728-.2207-1.2879-.0234-.5152 0-1.0811.0698-1.6979a24.5044 24.5044 0 0 1 .279-1.838c.1166-.609.2446-1.1865.3841-1.7329.1395-.5463.2712-1.0071.3956-1.3817.1863-.4525.1863-.8316 0-1.1358-.1864-.3045-.4419-.5071-.7678-.609-.3258-.1013-.6673-.0972-1.0238.0119-.3571.1093-.6132.3511-.7678.7258-.2639.6405-.5043 1.3582-.7214 2.1544-.2176.7962-.3919 1.62-.5236 2.4705-.1322.8512-.2061 1.6943-.2212 2.5294-.0011.0544.0015.1061.0015.1602-.3383.9076-.661 1.5935-.9671 2.0525-.3956.5936-.8416.8512-1.3377.7727-.2175-.0935-.3607-.3119-.4304-.6556-.0703-.3432-.0937-.7647-.0703-1.2647.0239-.4991.0817-1.0651.1744-1.6975a36.0476 36.0476 0 0 1 .3492-1.967c.14-.6795.2873-1.3619.4419-2.0491.1551-.6868.2946-1.3348.4196-1.9438-.0156-.5463-.1749-.9637-.4773-1.2528-.3025-.2884-.7256-.4016-1.268-.3395-.3722.1562-.648.3594-.8266.609-.1785.2496-.3216.5698-.4299.9599-.0625.2032-.1556.609-.2795 1.218-.1244.6085-.2832 1.3075-.4768 2.0957-.1942.7887-.4227 1.6119-.6866 2.4705-.2639.8586-.5585 1.6358-.8838 2.33-.3263.6946-.6829 1.2528-1.0707 1.6744-.3877.4212-.8068.5933-1.2565.5151-.2483-.0469-.407-.3045-.4768-.7727-.0697-.4685-.0817-1.0457-.0348-1.7329.0463-.6868.1395-1.4402.279-2.2596a78.9617 78.9617 0 0 1 .4304-2.3303c.1473-.7335.2832-1.3817.4076-1.9436.1239-.562.2092-.9367.2555-1.1238 0-.4528-.1009-.8155-.3024-1.0891-.2019-.2727-.446-.4448-.7328-.5152-.2874-.0701-.582-.0311-.8844.1171-.3024.1485-.5621.418-.7797.8078-.0776.4215-.1785.9096-.3024 1.4637a69.5883 69.5883 0 0 0-.3602 1.7094 89.3596 89.3596 0 0 0-.3259 1.7213c-.1009.5621-.1748 1.0538-.2212 1.4753-.0312.3277-.0661.73-.1046 1.2059-.039.4765-.0583.9798-.0583 1.5104 0 .5312.0385 1.0579.1166 1.5807.077.5232.2171 1.0033.4185 1.44.2014.4374.4846.7962.8495 1.0773.3643.281.826.437 1.3845.4685.5736.0309 1.0738-.0117 1.5006-.129.4269-.117.8141-.3006 1.1634-.5504.3492-.2493.6667-.5461.9541-.8899.2868-.3431.5699-.7177.8494-1.1238.2634.5936.6049 1.0538 1.0239 1.3817.4185.3277.8609.5232 1.3262.5853.4648.0621.9385-.0036 1.4195-.1991.4804-.1949.9145-.5267 1.3028-.9952.2556-.2873.4966-.6137.7225-.9747.0957.169.1978.3321.3128.4827.3805.5.8963.8431 1.548 1.0306.6975.1875 1.3798.219 2.0471.0939.6668-.1248 1.3029-.3514 1.9077-.6791a9.0017 9.0017 0 0 0 1.6875-1.1827c.5195-.4605.9728-.9403 1.3611-1.4403a22.77 22.77 0 0 0-.0234 1.0187c0 .3203-.0078.6672-.0234 1.0422-.7756.5466-1.5085 1.2023-2.1986 1.967-.6908.7647-1.2956 1.5805-1.8151 2.4471-.5194.8663-.927 1.7445-1.2211 2.6342-.2951.8904-.4388 1.7213-.431 2.4943.0078.7727.19 1.4477.5466 2.0252.357.5779.9384.9914 1.7452 1.2413.8381.2656 1.5746.273 2.2106.0235.6361-.2499 1.1904-.6637 1.6636-1.2413.4731-.5775.8609-1.276 1.1638-2.0956.3025-.8197.5429-1.6744.7209-2.5641.1786-.8898.291-1.7647.3373-2.6227.0469-.8589.0469-1.6242 0-2.2953 1.3341-.5618 2.4277-1.2721 3.2808-2.1309.8531-.8581 1.5589-1.7638 2.1174-2.7163.1708-.2341.2291-.5151.1749-.8428-.0546-.328-.1863-.6091-.3956-.8432ZM121.709 25.8528c.047-.3589.116-.7377.21-1.1358a9.283 9.283 0 0 1 .349-1.1592c.139-.3746.302-.6984.488-.9717.186-.273.384-.4682.593-.5855.21-.1168.423-.1052.641.035.232.1408.375.4373.43.8897.054.4534 0 .9371-.163 1.4522-.163.5155-.454.9991-.873 1.4519-.418.453-.985.7492-1.698.8897-.031-.2181-.024-.5071.023-.8663Zm8.062.9599c-.256-.0775-.5-.0855-.732-.0232-.233.0624-.381.2264-.442.492-.125.4994-.323 1.0107-.594 1.5335-.271.5232-.605 1.0188-1 1.4872a7.5135 7.5135 0 0 1-1.338 1.2409c-.497.3592-1.016.6168-1.559.7728-.544.172-.993.1913-1.35.0585-.357-.1322-.64-.3589-.849-.6788-.209-.32-.361-.7065-.454-1.1592a8.2393 8.2393 0 0 1-.163-1.4052c.884.0626 1.672-.0972 2.362-.4802.69-.382 1.276-.8897 1.757-1.5219.481-.6322.845-1.3425 1.093-2.131.248-.7882.388-1.5727.419-2.3535.015-.7338-.093-1.3541-.326-1.8615-.232-.5071-.547-.902-.942-1.1827-.395-.2811-.849-.445-1.361-.4917-.512-.0469-1.032.0235-1.559.2106-.636.2187-1.175.5737-1.617 1.0657-.443.4917-.811 1.0617-1.106 1.7094-.294.648-.527 1.3464-.698 2.0956-.17.7496-.294 1.4873-.372 2.2133-.07.6515-.107 1.2745-.12 1.8758-.033.0764-.066.1497-.101.2314a13.915 13.915 0 0 1-.838 1.6278c-.318.5309-.67.9759-1.058 1.3348-.388.3591-.791.4839-1.21.3746-.248-.0621-.384-.3515-.407-.8663-.023-.5154.003-1.1554.081-1.9204a219.58 219.58 0 0 1 .268-2.4824c.1-.8898.151-1.7403.151-2.5523 0-.7026-.132-1.3775-.396-2.0257-.264-.6474-.624-1.1863-1.081-1.6156-.458-.4296-.989-.7145-1.594-.8547-.606-.1408-1.257-.047-1.955.2807-.698.328-1.253.7885-1.663 1.3818a17.1803 17.1803 0 0 0-1.129 1.8734c-.125-.4997-.306-.9638-.547-1.3933-.241-.4294-.535-.8039-.884-1.1242a3.9862 3.9862 0 0 0-1.175-.7493c-.435-.1791-.893-.2691-1.373-.2691-.465 0-.896.09-1.291.2691a4.493 4.493 0 0 0-1.083.6908c-.325.2813-.62.5971-.884.9485-.263.3512-.496.6988-.6974 1.0419-.0317-.4058-.0666-.7608-.1051-1.0656-.0386-.3043-.1088-.5618-.2093-.7724-.101-.211-.2441-.3708-.4304-.4801-.1864-.1091-.4498-.164-.7907-.164-.1712 0-.342.0351-.5122.1051a1.4561 1.4561 0 0 0-.4539.293c-.1322.1254-.2326.2771-.3024.4566-.0702.1794-.089.3865-.0583.6206.0151.172.0583.3785.1281.6206.0697.2422.1353.5585.1978.9483.0619.3904.1124.8627.1509 1.4168.0391.5543.0505 1.2335.0349 2.0374-.0156.8042-.0734 1.7445-.1744 2.8217-.101 1.0772-.2602 2.3262-.4768 3.7466-.0312.3279.0927.5935.3722.7964.279.2026.597.3196.9541.3511.3565.0313.6943-.0314 1.0119-.1871.318-.1565.5007-.4296.547-.8197.0463-.7337.1359-1.5142.268-2.3419.131-.827.294-1.6467.488-2.4586.194-.8117.415-1.5844.663-2.3185.248-.7338.524-1.3814.826-1.9435.303-.5621.617-1.0107.943-1.3464.325-.3357.666-.5036 1.023-.5036.435 0 .772.1988 1.013.5969.24.3984.411.91.511 1.5339.101.6247.148 1.308.141 2.0492-.009.7415-.04 1.4558-.094 2.1426-.054.6872-.116 1.2997-.186 1.8383-.07.5387-.12.9097-.151 1.1123 0 .3592.135.6438.407.8547.271.2107.574.3358.907.3747.334.0392.648-.0235.943-.1875.295-.164.465-.4406.512-.8312.155-1.1239.368-2.2516.639-3.3835.272-1.1319.582-2.1464.932-3.0442.348-.8978.736-1.6316 1.163-2.2014.426-.5695.88-.8548 1.361-.8548.248 0 .438.1721.57.5152.132.3434.198.8117.198 1.4049 0 .4373-.035.8862-.105 1.3467-.07.4605-.151.9367-.245 1.4284-.092.4919-.174.9952-.244 1.5104-.069.5154-.104 1.0537-.104 1.6158 0 .3904.038.8431.116 1.3583.077.5148.225 1.0032.442 1.4634.217.4608.516.8509.896 1.1708.38.3199.865.4801 1.454.4801.884 0 1.668-.1913 2.35-.5737.683-.3823 1.268-.8817 1.757-1.4985.025-.0324.049-.0668.073-.0989.038.0912.071.1877.113.2745.334.6869.788 1.2174 1.362 1.5924.573.3746 1.248.5814 2.024.6206.775.0386 1.62-.1058 2.536-.4334.682-.2499 1.276-.5622 1.78-.9368.504-.3746.958-.8312 1.361-1.3698.403-.5386.771-1.1592 1.106-1.8616.333-.7029.67-1.5065 1.011-2.4123.062-.2492.004-.4718-.174-.6672-.178-.1949-.395-.3316-.652-.41ZM142.421 24.2004c-.078.4607-.183.9684-.315 1.5222-.132.5544-.298 1.128-.5 1.7213-.202.5933-.449 1.128-.744 1.604-.295.4765-.633.8547-1.012 1.1357-.381.281-.819.3981-1.315.3512-.249-.0309-.439-.2026-.57-.5152-.132-.3119-.202-.7103-.21-1.1943-.008-.4836.035-1.0145.128-1.5923a9.896 9.896 0 0 1 .431-1.6978c.194-.5538.43-1.0654.709-1.5339.279-.4682.601-.8312.966-1.0888.364-.2576.764-.3782 1.198-.3631.434.0158.9.2341 1.397.6557-.032.2032-.086.5351-.163.9953Zm8.271 1.7914c-.24-.1248-.489-.1519-.744-.0817-.256.0701-.439.3084-.547.7141-.062.4373-.202.9522-.419 1.5455a9.9208 9.9208 0 0 1-.802 1.6859c-.319.5309-.683.9721-1.094 1.3233-.412.3514-.849.5115-1.315.4798-.388-.031-.66-.23-.814-.5969-.156-.3669-.237-.8271-.244-1.3818-.009-.5537.046-1.1782.162-1.8731.117-.6945.256-1.3852.419-2.0727.163-.6866.329-1.3464.501-1.9786.17-.6322.309-1.1669.418-1.6039.125-.3904.086-.722-.116-.9956-.202-.2727-.454-.4682-.756-.5852-.303-.1171-.609-.1483-.92-.0936-.31.0547-.511.2225-.605.5032-.915-.7962-1.795-1.2254-2.64-1.2878-.846-.0624-1.626.125-2.339.5621-.714.437-1.345 1.0692-1.896 1.8969-.551.8276-.997 1.729-1.338 2.7046-.341.9756-.555 1.9712-.64 2.9857-.085 1.0148-.02 1.94.198 2.7751.217.835.6 1.5183 1.152 2.0487.55.5309 1.299.7965 2.245.7965.419 0 .822-.0859 1.21-.2577.388-.1719.745-.3749 1.07-.609.326-.234.613-.48.861-.7376.248-.2576.442-.4721.582-.6441.108.5621.287 1.0386.535 1.4287.248.3901.531.7106.849.9599.318.2495.652.4331 1.001.5505.349.117.686.1755 1.012.1755.729 0 1.411-.2498 2.048-.7495.635-.4991 1.206-1.1123 1.71-1.8381.504-.7261.919-1.4908 1.245-2.2949.326-.8039.543-1.5181.651-2.1429.109-.2341.089-.4798-.058-.7374-.148-.2575-.341-.4485-.582-.5739ZM192.575 38.9199c-.132.5306-.337.9798-.616 1.3464-.279.3669-.629.5583-1.048.574-.263.0154-.465-.1251-.605-.4216-.139-.2967-.236-.6791-.291-1.1473-.054-.4685-.077-.9917-.069-1.5692.008-.5775.031-1.1473.069-1.7094.039-.5618.086-1.0853.14-1.569.054-.4842.097-.8582.128-1.1238.527.0624.966.2923 1.315.6907.349.3981.616.8702.802 1.4168.187.5463.295 1.1358.326 1.768.031.6322-.02 1.2136-.151 1.7444Zm-8.423 0c-.132.5306-.337.9798-.617 1.3464-.279.3669-.628.5583-1.047.574-.264.0154-.465-.1251-.604-.4216-.14-.2967-.237-.6791-.291-1.1473-.055-.4685-.078-.9917-.07-1.5692.007-.5775.031-1.1473.07-1.7094.038-.5618.084-1.0853.139-1.569.054-.4842.097-.8582.128-1.1238.527.0624.966.2923 1.314.6907.35.3981.617.8702.804 1.4168.186.5463.294 1.1358.325 1.768.031.6322-.019 1.2136-.151 1.7444Zm-8.644-13.3007c-.016.3743-.051.7062-.105.9949-.054.2894-.128.4724-.221.5505-.171-.0939-.38-.3354-.628-.7261-.249-.3901-.442-.8315-.582-1.3232-.139-.4917-.182-.9753-.128-1.4518.054-.476.299-.8464.733-1.1123.17-.0936.318-.0585.442.1054.124.1641.225.402.303.7143.077.3125.131.6714.162 1.0772.032.4061.039.7962.024 1.1711Zm-2.059 4.6716a4.1664 4.1664 0 0 1-.803.6673c-.295.1874-.597.328-.908.4216-.31.0938-.589.117-.837.07-.698-.1402-1.234-.445-1.605-.9132-.373-.4682-.61-1.0184-.71-1.6506-.101-.6325-.09-1.3078.034-2.0258.124-.7181.334-1.3853.629-2.002.294-.6168.651-1.1477 1.07-1.5924.419-.445.876-.7219 1.373-.8316-.186.7962-.248 1.6201-.186 2.4706.062.8509.264 1.6509.605 2.4002.217.4533.477.8665.779 1.2412.303.3749.671.6948 1.106.9601-.125.2656-.307.527-.547.7846Zm25.746-4.4375c.046-.3589.116-.738.209-1.1361.093-.3978.21-.7843.349-1.1589.14-.3749.303-.6987.489-.9717.186-.2731.384-.4686.593-.5856.21-.117.423-.1055.64.0351.233.1407.376.4373.43.8897.055.453 0 .9367-.162 1.4522-.163.5151-.454.9991-.873 1.4515-.418.4534-.985.7496-1.698.8901-.031-.2184-.024-.5071.023-.8663Zm9.377 0c.046-.3589.116-.738.209-1.1361.094-.3978.21-.7843.35-1.1589.139-.3749.302-.6987.488-.9717.186-.2731.384-.4686.593-.5856.21-.117.423-.1055.64.0351.233.1407.376.4373.431.8897.054.453 0 .9367-.163 1.4522-.163.5151-.454.9991-.873 1.4515-.418.4534-.985.7496-1.698.8901-.031-.2184-.024-.5071.023-.8663Zm8.714 1.3699c-.179-.1949-.396-.3316-.651-.41-.256-.0779-.5-.0856-.734-.0232-.232.0624-.38.2264-.442.4917-.124.4996-.322 1.0109-.593 1.5335-.272.5235-.605 1.019-1 1.4872a7.5188 7.5188 0 0 1-1.338 1.2412c-.497.3592-1.017.6168-1.559.7724-.543.1724-.993.1917-1.35.0589-.357-.1325-.64-.3589-.849-.6789-.209-.3202-.361-.7064-.454-1.1595-.093-.4524-.147-.9206-.163-1.4049.884.0627 1.672-.0972 2.362-.4801.69-.3823 1.276-.89 1.757-1.5222.48-.6319.845-1.3423 1.093-2.1307.248-.7885.388-1.5728.419-2.3535.015-.7338-.093-1.3544-.326-1.8619-.232-.5071-.546-.9016-.942-1.1824-.396-.2813-.849-.445-1.361-.4919-.512-.047-1.032.0238-1.559.2106-.636.219-1.175.574-1.617 1.0656-.442.492-.811 1.0621-1.105 1.7095-.295.6482-.528 1.3463-.699 2.0959a18.9093 18.9093 0 0 0-.371 2.213c-.076.7044-.117 1.3785-.126 2.0237a9.438 9.438 0 0 1-.189.388c-.272.5235-.605 1.019-1.001 1.4872a7.451 7.451 0 0 1-1.338 1.2412c-.496.3592-1.016.6168-1.558.7724-.544.1724-.994.1917-1.35.0589-.357-.1325-.64-.3589-.849-.6789-.209-.3202-.361-.7064-.454-1.1595a8.2299 8.2299 0 0 1-.163-1.4049c.884.0627 1.671-.0972 2.362-.4801.69-.3823 1.275-.89 1.756-1.5222.481-.6319.846-1.3423 1.094-2.1307.248-.7885.388-1.5728.419-2.3535.015-.7338-.093-1.3544-.326-1.8619-.233-.5071-.547-.9016-.942-1.1824-.396-.2813-.849-.445-1.362-.4919-.511-.047-1.031.0238-1.559.2106-.636.219-1.174.574-1.616 1.0656-.443.492-.811 1.0621-1.106 1.7095-.294.6482-.527 1.3463-.698 2.0959a19.1277 19.1277 0 0 0-.372 2.213c-.044.4094-.073.8063-.095 1.196-.15.1284-.296.2576-.452.3845a13.982 13.982 0 0 1-1.686 1.1827c-.591.3514-1.203.6402-1.839.8665a7.3292 7.3292 0 0 1-1.954.4097l1.442-15.5491c.093-.3279.047-.6164-.139-.8662-.186-.2499-.427-.4216-.722-.5152-.295-.0939-.609-.0859-.942.0232-.334.1096-.609.3594-.826.7492-.109.5936-.221 1.4052-.337 2.4355-.117 1.0303-.233 2.1545-.35 3.3722a667.9897 667.9897 0 0 0-.348 3.77 251.581 251.581 0 0 0-.303 3.6298c-.004.0499-.007.095-.011.1444-.136.1158-.267.2326-.408.3473a13.993 13.993 0 0 1-1.687 1.1827 10.391 10.391 0 0 1-1.838.8665 7.3282 7.3282 0 0 1-1.955.4097l1.443-15.5491c.093-.3279.047-.6164-.139-.8662-.187-.2499-.427-.4216-.722-.5152-.294-.0939-.609-.0859-.943.0232-.333.1096-.608.3594-.825.7492-.109.5936-.221 1.4052-.337 2.4355a188.0435 188.0435 0 0 0-.35 3.3722 773.5252 773.5252 0 0 0-.349 3.77 265.9429 265.9429 0 0 0-.302 3.6298c-.002.0226-.003.0431-.005.0657-.244.1137-.51.2136-.798.2974-.295.0861-.628.1369-1 .1523.062-.2813.112-.5935.151-.937.038-.3431.07-.7023.093-1.0772.023-.3743.031-.7492.023-1.1239-.008-.3749-.027-.718-.058-1.0306-.078-.6708-.221-1.3071-.43-1.9084-.21-.6007-.493-1.104-.849-1.5104-.358-.4058-.804-.6791-1.339-.8194-.535-.1404-1.159-.0938-1.872.1403-1.056-.1403-2.006-.0425-2.851.2929-.846.336-1.578.8235-2.199 1.4634-.62.6405-1.128 1.3933-1.524 2.26-.396.8662-.659 1.7563-.791 2.6693-.056.3871-.083.7724-.092 1.1568-.24.4949-.503.9275-.793 1.2905-.41.5152-.837.9367-1.279 1.2644-.442.328-.881.5779-1.315.7496-.434.172-.822.289-1.163.3511-.403.0781-.791.0862-1.163.0235-.373-.0621-.715-.2418-1.024-.5386-.249-.2184-.438-.5698-.57-1.0538-.132-.4839-.209-1.0339-.233-1.6509-.023-.6167 0-1.2608.07-1.9319s.189-1.3075.361-1.9085c.17-.601.387-1.1396.651-1.6161.263-.4756.573-.8155.93-1.0184.202.0315.327.1521.373.3627.046.2109.058.4608.035.7495-.023.2891-.058.5856-.105.8898-.046.3046-.07.5585-.07.7612.078.4215.229.7495.454.9836.225.2341.477.371.756.4097.279.0392.555-.027.826-.1991.272-.1714.493-.4447.663-.8196.016.0157.039.0235.07.0235l.326-2.9739c.093-.4061.031-.7649-.186-1.0772-.217-.3122-.504-.492-.861-.5386-.45-.6556-1.059-1.0029-1.827-1.0422-.767-.0389-1.555.2148-2.361.7611-.497.3595-.935.8547-1.315 1.4869-.381.6326-.69 1.3348-.931 2.1076-.241.7727-.411 1.5888-.511 2.4473-.101.8586-.121 1.694-.059 2.5053.062.8123.206 1.5773.431 2.2951.224.7183.539 1.3193.942 1.8029.341.4216.729.7303 1.163.9255.434.1951.888.3157 1.361.3627.474.0466.943.027 1.408-.0585.466-.0856.908-.2065 1.327-.363.543-.2027 1.101-.4605 1.675-.7728.574-.3119 1.124-.6869 1.652-1.1242.277-.2299.545-.4806.803-.7495.117.2935.249.5776.407.8434.419.7024.985 1.2724 1.698 1.7095.713.437 1.59.6473 2.63.6322 1.117-.0158 2.148-.3004 3.094-.8548.947-.5537 1.722-1.3701 2.328-2.447.906 0 1.797-.1504 2.673-.449-.007.0945-.014.194-.021.2853-.062.8274-.094 1.3891-.094 1.6859-.015.5152-.049 1.1512-.104 1.9082a44.9678 44.9678 0 0 0-.104 2.3886c-.016.835.015 1.6782.092 2.5293.078.8506.241 1.6236.489 2.3184.248.6943.601 1.2837 1.059 1.768.457.4837 1.058.7727 1.803.8663.791.1091 1.473-.0315 2.047-.4216.574-.3903 1.04-.9248 1.397-1.6039.357-.6795.608-1.4638.756-2.3535.147-.8898.19-1.7837.128-2.6815-.062-.8978-.225-1.7445-.489-2.5404-.264-.7964-.628-1.4521-1.094-1.9676.28-.0775.613-.2257 1.001-.4447.388-.2183.787-.4643 1.199-.7376.101-.0672.2-.1379.301-.2068-.038.5532-.057.9477-.057 1.1788-.015.5152-.05 1.1512-.105 1.9082a44.9678 44.9678 0 0 0-.104 2.3886c-.016.835.015 1.6782.093 2.5293.077.8506.24 1.6236.488 2.3184.248.6943.601 1.2837 1.059 1.768.457.4837 1.058.7727 1.803.8663.791.1091 1.474-.0315 2.048-.4216.573-.3903 1.039-.9248 1.396-1.6039.356-.6795.608-1.4638.756-2.3535.147-.8898.19-1.7837.128-2.6815-.062-.8978-.225-1.7445-.489-2.5404-.263-.7964-.628-1.4521-1.094-1.9676.28-.0775.614-.2257 1.001-.4447.388-.2183.787-.4643 1.199-.7376.213-.142.426-.2885.637-.4391.08.7635.252 1.4331.526 1.9964.333.6871.787 1.2177 1.361 1.5926.574.3744 1.249.5814 2.025.6203.775.0387 1.62-.1054 2.536-.4334.682-.2495 1.275-.5618 1.78-.9364.504-.3749.958-.8315 1.361-1.3698.023-.0313.045-.0651.068-.0966.072.2186.152.4287.246.6233.334.6871.787 1.2177 1.361 1.5926.574.3744 1.249.5814 2.025.6203.775.0387 1.621-.1054 2.536-.4334.683-.2495 1.276-.5618 1.78-.9364.504-.3749.957-.8315 1.361-1.3698.403-.539.771-1.1596 1.105-1.8619.334-.7026.671-1.5062 1.013-2.412.062-.2495.003-.4721-.175-.6672Z" fill="#0D0C23"/></g><defs><clipPath id="a"><path fill="#fff" d="M.5.67h217v48H.5z"/></clipPath></defs></svg>
