<svg
              fill="none"
              xmlns="http://www.w3.org/2000/svg"
              viewBox="0 0 56 50"
            >
              <path
                d="M40.3543 2.1026c.1723-1.0275.2758-1.5803.2758-1.5803L37.8614 0c-.2679 1.6907-.4982 3.3823-.6867 5.084-.8191 7.8494.0345 15.1254.9237 22.7033.1137.9698.2281 1.9447.3396 2.9262.0215.2008.0481.4234.0767.6633.3134 2.623.8718 7.2986-2.3517 7.8188-2.0967.2934-3.8504-1.7015-3.7912-3.7344l.0015-.0358c.0279-.6738.1188-1.3415.2907-1.9942.5403-2.1369 1.4512-4.3052 2.7385-6.1015l-.5283-.4173c-3.0106 3.3699-6.6092 10.2157-1.5461 13.3815.8635.5418 1.9519.8376 3.0446.7172 4.8929-.6991 4.4855-6.7795 4.2117-10.5055-.148-1.8514-.3643-3.6877-.5801-5.5204-.4115-3.4941-.8215-6.9753-.7539-10.524V14.46l.0019-.1022c.0295-1.4352.1045-2.8677.1931-4.3001l.0164-.2396c.0896-1.1718.1913-2.2679.2984-3.257-1.8391-1.0484-1.4825-3.9364.5941-4.4585Z"
                fill="#fff"
              />
              <path
                d="M25.4093 16.174h8.9883c.035.6499.0763 1.2976.1231 1.9433h-9.2938a101.19 101.19 0 0 1 .1824-1.9433ZM24.964 25.411h7.7845c-.4927.5708-1.001 1.2258-1.4911 1.9434h-6.2a51.8338 51.8338 0 0 1-.0934-1.9434ZM42.8679 27.3544a246.2748 246.2748 0 0 0-.2208-1.9434H54v1.9434H42.8679ZM36.1884 34.649h-1.1536a7.2279 7.2279 0 0 0-.0894.8854l-.0006.0136c-.0039.2527.1142.582.3533.8291.1172.1211.2229.1845.3123.2153h.2452l.0017-.0043.0026-.0062.0018-.004a.1059.1059 0 0 1 .0043-.0075c.0878-.14.2244-.4914.287-1.1721a8.9324 8.9324 0 0 0 .0354-.7493ZM28.2833 34.649h-2.475a207.32 207.32 0 0 1 .2184 1.9434h2.2348c-.0624-.6571-.048-1.3092.0218-1.9434ZM52.8994 36.5924h-9.805c.1013-.6446.1592-1.2996.1876-1.9434h9.6174v1.9434ZM18.1241 43.8861h1.1876a8.4315 8.4315 0 0 1-.0296.4742c-.0627.6806-.1992 1.0321-.2871 1.172-.0046.0074-.0068.0131-.0086.0177-.0056.0144-.0071.0183-.0638.0282-.1089.0103-.2833-.0199-.4955-.2391-.2391-.2471-.3571-.5765-.3532-.8291l.0005-.0136a7.5236 7.5236 0 0 1 .0497-.6103ZM15.6436 34.649a22.2072 22.2072 0 0 0-1.4427 1.9434H2.0996V34.649h13.544ZM17.67 27.3544a106.752 106.752 0 0 1-.1281-1.9434H1v1.9434h16.67ZM17.5409 16.174a65.575 65.575 0 0 0-.0973 1.9433H2.0996V16.174H17.541ZM11.3857 43.8861c-.0532.6361-.0483 1.2882.0354 1.9433h-6.721v-1.9433h6.6856ZM26.3971 43.8861c-.037.6468-.1056 1.3019-.2196 1.9433h24.1241v-1.9433H26.3971ZM41.9108 18.1173a49.8538 49.8538 0 0 1-.0828-1.9433h11.0714v1.9433H41.9108Z"
                fill="#fff"
              />
              <path
                d="M23.7596 9.4845s-.1036.5528-.2759 1.5803c-2.0766.5221-2.4332 3.4102-.5941 4.4585a104.712 104.712 0 0 0-.2984 3.257l-.0164.2396c-.0885 1.4325-.1636 2.8649-.193 4.3001l-.002.1022v.0012c-.0675 3.5487.3424 7.0299.7539 10.524.2159 1.8327.4321 3.669.5801 5.5204.2738 3.726.6812 9.8065-4.2116 10.5056-1.0928.1203-2.1811-.1755-3.0447-.7173-5.063-3.1658-1.4644-10.0116 1.5461-13.3814l.5283.4172c-1.2873 1.7963-2.1982 3.9646-2.7384 6.1015-.1719.6527-.2629 1.3204-.2908 1.9942l-.0015.0359c-.0591 2.0328 1.6946 4.0277 3.7912 3.7343 3.2236-.5202 2.6651-5.1957 2.3518-7.8188a53.7312 53.7312 0 0 1-.0767-.6632c-.1115-.9816-.2259-1.9564-.3397-2.9262-.8891-7.578-1.7428-14.8539-.9237-22.7034.1885-1.7017.4189-3.3932.6868-5.084l2.7687.5223Z"
                fill="#fff"
              />
            </svg>
