<svg fill="none" xmlns="http://www.w3.org/2000/svg" viewBox="0 0 56 51"><path d="M40.3543 2.166c.1723-1.0275.2758-1.5803.2758-1.5803L37.8614.0635c-.2679 1.6907-.4982 3.3823-.6867 5.084-.8191 7.8494.0345 15.1254.9237 22.7032.1137.9699.2281 1.9447.3396 2.9263.0215.2008.0481.4234.0767.6632.3134 2.6231.8718 7.2986-2.3517 7.8188-2.0967.2935-3.8504-1.7014-3.7912-3.7343l.0015-.0358c.0279-.6738.1188-1.3415.2907-1.9942.5403-2.1369 1.4512-4.3052 2.7385-6.1015l-.5283-.4173c-3.0106 3.3698-6.6092 10.2156-1.5461 13.3815.8635.5418 1.9519.8376 3.0446.7172 4.8929-.6991 4.4855-6.7795 4.2117-10.5056-.148-1.8514-.3643-3.6876-.5801-5.5204-.4115-3.494-.8215-6.9752-.7539-10.5239v-.0012l.0019-.1022c.0295-1.4353.1045-2.8677.1931-4.3001l.0164-.2396c.0896-1.1719.1913-2.268.2984-3.257-1.8391-1.0484-1.4825-3.9365.5941-4.4585Z" fill="#000"/><path d="M25.4093 16.2375h8.9883c.035.6499.0763 1.2975.1231 1.9433h-9.2938c.0576-.6828.119-1.333.1824-1.9433ZM24.964 25.4745h7.7845c-.4927.5708-1.001 1.2258-1.4911 1.9433h-6.2a51.8183 51.8183 0 0 1-.0934-1.9433ZM42.8679 27.4178a246.7856 246.7856 0 0 0-.2208-1.9433H54v1.9433H42.8679ZM36.1884 34.7125h-1.1536a7.2279 7.2279 0 0 0-.0894.8854l-.0006.0136c-.0039.2526.1142.582.3533.8291.1172.1211.2229.1845.3123.2153h.2452l.0017-.0044.0026-.0061.0018-.0041a.1342.1342 0 0 1 .0043-.0075c.0878-.1399.2244-.4914.287-1.172a8.9344 8.9344 0 0 0 .0354-.7493ZM28.2833 34.7125h-2.475a207.32 207.32 0 0 1 .2184 1.9434h2.2348c-.0624-.6571-.048-1.3092.0218-1.9434ZM52.8994 36.6559h-9.805c.1013-.6446.1592-1.2996.1876-1.9434h9.6174v1.9434ZM18.1241 43.9496h1.1876a8.4315 8.4315 0 0 1-.0296.4742c-.0627.6806-.1992 1.032-.2871 1.172-.0046.0074-.0068.0131-.0086.0177-.0056.0144-.0071.0182-.0638.0282-.1089.0103-.2833-.0199-.4955-.2392-.2391-.247-.3571-.5764-.3532-.829l.0005-.0136a7.5199 7.5199 0 0 1 .0497-.6103ZM15.6436 34.7125a22.1771 22.1771 0 0 0-1.4427 1.9434H2.0996v-1.9434h13.544ZM17.67 27.4178a106.7409 106.7409 0 0 1-.1281-1.9433H1v1.9433h16.67ZM17.5409 16.2375a65.575 65.575 0 0 0-.0973 1.9433H2.0996v-1.9433H17.541ZM11.3857 43.9496c-.0532.6361-.0483 1.2882.0354 1.9433h-6.721v-1.9433h6.6856ZM26.3971 43.9496c-.037.6468-.1056 1.3018-.2196 1.9433h24.1241v-1.9434l-23.9045.0001ZM41.9108 18.1808a49.8538 49.8538 0 0 1-.0828-1.9433h11.0714v1.9433H41.9108Z" fill="#000"/><path d="M23.7596 9.548s-.1036.5528-.2759 1.5803c-2.0766.5221-2.4332 3.4101-.5941 4.4584a104.72 104.72 0 0 0-.2984 3.2571l-.0164.2396c-.0885 1.4324-.1636 2.8649-.193 4.3001l-.002.1022v.0012c-.0675 3.5487.3424 7.0299.7539 10.5239.2159 1.8328.4321 3.6691.5801 5.5205.2738 3.726.6812 9.8064-4.2116 10.5055-1.0928.1204-2.1811-.1754-3.0447-.7172-5.063-3.1658-1.4644-10.0116 1.5461-13.3815l.5283.4173c-1.2873 1.7963-2.1982 3.9646-2.7384 6.1015-.1719.6527-.2629 1.3204-.2908 1.9942l-.0015.0358c-.0591 2.0329 1.6946 4.0278 3.7912 3.7344 3.2236-.5202 2.6651-5.1958 2.3518-7.8189a53.509 53.509 0 0 1-.0767-.6632c-.1115-.9815-.2259-1.9563-.3397-2.9262-.8891-7.5779-1.7428-14.8539-.9237-22.7033.1885-1.7017.4189-3.3933.6868-5.084l2.7687.5223Z" fill="#000"/></svg>
