<svg fill="none" xmlns="http://www.w3.org/2000/svg" viewBox="0 0 232 29"><path d="M57.401 14.4918c2.2853 0 4.262-1.6768 4.262-4.1958 0-2.4661-1.8896-4.0175-4.3691-4.0175h-3.1601v8.2133h3.2672ZM48.5884 1.5625l11.0489.0655c3.594 0 8.1809 2.8263 8.1809 8.4898 0 5.9764-4.0968 9.3101-8.7545 9.3101l-4.9299-.0928v6.9767h-5.5454V1.5625ZM83.4413 9.0557l-2.6647 9.6083h5.3311l-2.6664-9.6083ZM79.4461 23.46l-.7914 2.8518h-6.4438L80.891 1.9262h5.224l8.6801 24.3856h-6.5654l-.7914-2.8518h-7.9922ZM104.069 7.0132h-5.4421V2.1008h16.5091v4.9124h-5.5v19.2986h-5.567V7.0132ZM132.964 14.51c2.184 0 3.95-1.6259 3.95-4.0739 0-2.6335-1.881-4.1322-4.15-4.1322h-3.24V14.51h3.44Zm-9.061-12.4092 10.21-.049c4.008 0 8.497 2.9608 8.497 8.5025 0 3.6902-1.204 6.4856-4.645 8.0879l4.848 7.6696h-6.335l-4.456-6.9585h-2.498v6.9585h-5.621V2.1008ZM152.029 2.1008h15.087v4.2195h-8.854v5.4471h8.873v4.876h-8.873v5.4489h8.903v4.2195h-15.136V2.1008ZM189.16 21.6595c4.2 0 6.995-3.4556 6.995-7.5041 0-4.0831-2.802-7.6423-7.061-7.6423-4.207 0-6.995 3.452-6.995 7.5041 0 4.0921 2.804 7.6423 7.061 7.6423Zm-.068 5.3143c-4.171 0-7.832-1.8369-10.137-4.776-1.706-2.1752-2.643-4.9542-2.643-8.0406 0-3.281.993-6.2328 2.89-8.488 2.319-2.7554 5.93-4.4723 9.959-4.4723 3.711 0 7.109 1.455 9.421 3.843 2.211 2.2861 3.422 5.4289 3.422 8.9754 0 3.6775-1.422 7.1313-3.769 9.4629-2.307 2.2916-5.51 3.4956-9.143 3.4956ZM211.604 2.1008h5.858l8.48 15.3247V2.1008h5.558v24.211h-5.936l-8.447-15.3919v15.3919h-5.513V2.1008Z" fill="#FF424D"/><path fill-rule="evenodd" clip-rule="evenodd" d="M.5.42h5.1174v27.9999H.5v-28ZM19.1497.4605c5.7729 0 10.4537 4.698 10.4537 10.4943 0 5.7956-4.6808 10.4943-10.4537 10.4943-5.7736 0-10.4538-4.6987-10.4538-10.4943C8.696 5.1586 13.3761.4605 19.1497.4605Z" fill="#FF424D"/></svg>
