<svg fill="none" xmlns="http://www.w3.org/2000/svg" viewBox="0 0 170 46"><g clip-path="url(#a)"><path d="M63.354 9.248h-9.376c-.6417 0-1.1873.4637-1.2874 1.0937l-3.7921 23.9141c-.0754.4718.292.8972.7732.8972h4.4762c.6417 0 1.1873-.4636 1.2874-1.095l1.0227-6.45c.0987-.6313.6458-1.095 1.286-1.095h2.9681c6.1763 0 9.7408-2.9727 10.6717-8.8636.4195-2.5773.0178-4.6023-1.1955-6.0204-1.3326-1.5573-3.6962-2.381-6.8343-2.381Zm1.0817 8.7341c-.5128 3.3464-3.0833 3.3464-5.5689 3.3464H57.452l.9926-6.2495c.0589-.3778.3879-.656.7718-.656h.6485c1.6931 0 3.2903 0 4.1156.96.4922.5728.643 1.4237.4552 2.5991ZM91.3808 17.8746h-4.4899c-.3825 0-.7129.2782-.7719.6559l-.1988 1.2491-.3139-.4527c-.972-1.4032-3.1395-1.8723-5.3029-1.8723-4.9616 0-9.1992 3.7377-10.0246 8.9809-.4291 2.6155.181 5.1164 1.6726 6.8605 1.3683 1.6036 3.326 2.2718 5.6553 2.2718 3.9977 0 6.2146-2.5568 6.2146-2.5568l-.2002 1.2409c-.0754.4745.292.9.7705.9h4.0443c.643 0 1.1859-.4637 1.2874-1.095l2.4266-15.285c.0768-.4705-.2893-.8973-.7691-.8973Zm-6.2585 8.6918c-.4332 2.5514-2.4691 4.2641-5.0657 4.2641-1.3038 0-2.3457-.4159-3.0148-1.2041-.6635-.7827-.9158-1.8968-.7046-3.1377.4044-2.5296 2.4746-4.2982 5.0314-4.2982 1.275 0 2.3115.4214 2.9942 1.2164.6841.8031.9556 1.9241.7595 3.1595ZM115.293 17.8745h-4.512a1.31 1.31 0 0 0-1.079.5686l-6.223 9.1173-2.637-8.7613c-.166-.5482-.675-.9246-1.2506-.9246h-4.4337c-.5388 0-.9131.5236-.7417 1.0282l4.9698 14.5064-4.6723 6.5604c-.3674.5168.0028 1.2273.6375 1.2273h4.5064c.4276 0 .8276-.2073 1.0706-.5564l15.007-21.5454c.359-.5155-.01-1.2205-.642-1.2205Z" fill="#253B80"/><path d="M130.231 9.248h-9.377c-.641 0-1.186.4637-1.286 1.0937l-3.793 23.9141c-.075.4718.292.8972.771.8972h4.812c.447 0 .829-.3245.899-.7663l1.077-6.7787c.098-.6313.645-1.095 1.286-1.095h2.966c6.178 0 9.741-2.9727 10.673-8.8636.421-2.5773.017-4.6023-1.197-6.0204-1.331-1.5573-3.693-2.381-6.831-2.381Zm1.082 8.7341c-.512 3.3464-3.082 3.3464-5.569 3.3464h-1.414l.994-6.2495c.059-.3778.386-.656.771-.656h.648c1.692 0 3.291 0 4.116.96.492.5728.641 1.4237.454 2.5991ZM158.257 17.8746h-4.487c-.386 0-.713.2782-.771.6559l-.199 1.2491-.315-.4527c-.972-1.4032-3.138-1.8723-5.302-1.8723-4.961 0-9.197 3.7377-10.023 8.9809-.427 2.6155.18 5.1164 1.672 6.8605 1.37 1.6036 3.325 2.2718 5.655 2.2718 3.997 0 6.214-2.5568 6.214-2.5568l-.2 1.2409c-.075.4745.292.9.773.9h4.043c.641 0 1.186-.4637 1.286-1.095l2.428-15.285c.074-.4705-.293-.8973-.774-.8973Zm-6.259 8.6918c-.43 2.5514-2.469 4.2641-5.065 4.2641-1.301 0-2.346-.4159-3.015-1.2041-.664-.7827-.913-1.8968-.705-3.1377.407-2.5296 2.475-4.2982 5.032-4.2982 1.275 0 2.311.4214 2.994 1.2164.687.8031.958 1.9241.759 3.1595ZM163.55 9.9041l-3.849 24.3518c-.075.4718.292.8973.771.8973h3.869c.643 0 1.188-.4636 1.287-1.095l3.795-23.9127c.075-.4719-.292-.8987-.771-.8987h-4.332c-.382.0014-.711.2796-.77.6573Z" fill="#179BD7"/><path d="m9.962 39.8005.7169-4.53-1.5971-.0368H1.455L6.7552 1.8069a.4411.4411 0 0 1 .1481-.2619.4342.4342 0 0 1 .2824-.1036h12.8597c4.2692 0 7.2154.8836 8.7536 2.6277.7212.8182 1.1804 1.6732 1.4025 2.6141.2331.9873.2372 2.1668.0096 3.6055l-.0164.105v.9218l.7211.4064c.6073.3204 1.0899.6872 1.4601 1.1072.6169.6996 1.0159 1.5887 1.1845 2.6428.1741 1.0841.1165 2.3741-.1686 3.8345-.3291 1.68-.861 3.1432-1.5794 4.3405-.6608 1.1031-1.5026 2.0181-2.502 2.7272-.9542.6737-2.088 1.185-3.3698 1.5123-1.2421.3218-2.6583.4841-4.2117.4841h-1.0008c-.7156 0-1.4107.2564-1.9563.7159-.547.4691-.909 1.11-1.02 1.8109l-.0754.4077-1.2668 7.9841-.0576.2932c-.0151.0927-.0411.1391-.0795.1705a.2128.2128 0 0 1-.1316.0477h-6.179Z" fill="#253B80"/><path d="M31.5984 10.5a22.1905 22.1905 0 0 1-.1316.75c-1.6959 8.6605-7.4978 11.6523-14.9079 11.6523H12.786a1.8292 1.8292 0 0 0-1.811 1.5436L9.0433 36.6314l-.547 3.4541c-.0919.5836.3605 1.11.9528 1.11h6.6917c.7924 0 1.4655-.5728 1.5903-1.35l.0658-.3382 1.2599-7.9528.0809-.4363c.1234-.78.7979-1.3527 1.5903-1.3527h1.0008c6.4833 0 11.5587-2.6182 13.0421-10.1946.6196-3.165.2988-5.8077-1.3409-7.6664-.4962-.5604-1.1118-1.0254-1.8316-1.4045Z" fill="#179BD7"/><path d="M29.824 9.7964a13.4269 13.4269 0 0 0-.8006-.2046c-.2756-.06-.558-.1131-.8486-.1595-1.0173-.1637-2.1319-.2414-3.326-.2414H14.7694c-.2481 0-.4839.056-.695.1568-.4648.2223-.8103.66-.8939 1.1959l-2.1442 13.5082-.0617.3941a1.8292 1.8292 0 0 1 1.8111-1.5436h3.7729c7.41 0 13.212-2.9932 14.9079-11.6523.0507-.2564.0932-.5059.1316-.75-.4291-.2264-.8939-.42-1.3943-.585a12.43 12.43 0 0 0-.3798-.1186Z" fill="#222D65"/><path d="M13.1805 10.5436c.0836-.536.4291-.9737.8938-1.1946.2125-.1009.447-.1568.6951-.1568h10.0794c1.1941 0 2.3087.0777 3.3259.2414.2907.0463.5731.0995.8487.1595.2742.0614.5415.1296.8006.2046.1289.0381.2564.0777.3811.1172.5004.165.9652.36 1.3943.585.5045-3.2004-.0041-5.3795-1.7439-7.3527C27.9376.9749 24.4759.0449 20.0463.0449H7.1866c-.9048 0-1.6767.6546-1.8165 1.545L.0137 35.3604c-.1056.6682.4127 1.2709 1.09 1.2709h7.9392l1.9934-12.5796 2.1442-13.5081Z" fill="#253B80"/></g><defs><clipPath id="a"><path fill="#fff" d="M0 .045h170v45H0z"/></clipPath></defs></svg>
