<svg fill="none" xmlns="http://www.w3.org/2000/svg" viewBox="0 0 218 49"><g clip-path="url('#a')"><path d="M18.06 22.844c-1.706.738-3.643 1.575-6.154 1.575a11.543 11.543 0 0 1-3.107-.433l1.736 18.007a3.02 3.02 0 0 0 .951 1.966 2.962 2.962 0 0 0 2.018.795s2.462.129 3.284.129c.884 0 3.535-.13 3.535-.13a2.963 2.963 0 0 0 2.018-.795 3.02 3.02 0 0 0 .95-1.965l1.86-19.898c-.83-.287-1.67-.478-2.615-.478-1.636 0-2.953.569-4.475 1.227Z" fill="#FD0"/><path d="m33.181 13.5-.261-1.333c-.235-1.195-.768-2.325-1.982-2.757-.39-.138-.831-.197-1.13-.483-.299-.286-.387-.73-.456-1.143-.128-.756-.248-1.513-.379-2.267-.113-.65-.203-1.378-.497-1.974-.384-.8-1.18-1.267-1.971-1.576a11.276 11.276 0 0 0-1.24-.388c-1.977-.526-4.057-.72-6.09-.83a50.63 50.63 0 0 0-7.327.122c-1.813.167-3.723.368-5.446 1.002-.63.231-1.278.51-1.757 1.001-.588.604-.78 1.538-.35 2.29.305.535.821.913 1.37 1.163.713.322 1.458.567 2.223.731 2.129.475 4.334.662 6.509.741a49.073 49.073 0 0 0 7.224-.238 40.668 40.668 0 0 0 1.777-.237c.696-.108 1.143-1.027.937-1.668-.245-.766-.905-1.063-1.65-.947a29.542 29.542 0 0 1-.33.05l-.08.011a45.538 45.538 0 0 1-.758.09 39.827 39.827 0 0 1-1.57.14 52.288 52.288 0 0 1-7 .013 43.73 43.73 0 0 1-1.577-.133 37.864 37.864 0 0 1-.714-.081l-.226-.03-.05-.007-.234-.034c-.48-.073-.96-.157-1.434-.258a.215.215 0 0 1-.121-.076.22.22 0 0 1 0-.273.215.215 0 0 1 .121-.076h.01a23.042 23.042 0 0 1 1.24-.23l.417-.065h.004c.26-.017.522-.064.78-.095a49.154 49.154 0 0 1 6.783-.242c1.1.033 2.197.098 3.291.21.236.025.47.05.704.08.09.01.18.023.27.034l.181.027a24.97 24.97 0 0 1 1.58.29c.776.17 1.773.226 2.118 1.085.11.272.16.575.22.861l.078.365a.135.135 0 0 1 .004.02l.55 2.583a.476.476 0 0 1-.075.37.469.469 0 0 1-.32.198h-.005l-.112.015-.11.015c-.35.046-.701.09-1.052.13a67.257 67.257 0 0 1-2.079.206 72.05 72.05 0 0 1-4.144.228 74.262 74.262 0 0 1-2.116.026 72.713 72.713 0 0 1-8.397-.493 87.315 87.315 0 0 1-.905-.114c.234.03-.17-.024-.252-.035a54.034 54.034 0 0 1-.575-.085c-.644-.097-1.284-.218-1.927-.323-.776-.129-1.52-.064-2.222.323a3.25 3.25 0 0 0-1.338 1.401c-.303.633-.393 1.322-.529 2.002-.135.68-.346 1.412-.266 2.11.172 1.506 1.214 2.73 2.714 3.005 1.411.258 2.83.467 4.252.645a77.8 77.8 0 0 0 18.206.106.95.95 0 0 1 .421.049.958.958 0 0 1 .36.227.97.97 0 0 1 .227.36.977.977 0 0 1 .05.426l-.141 1.393-.858 8.447a6739.998 6739.998 0 0 1-.9 8.87l-.256 2.497c-.082.82-.094 1.665-.248 2.474-.243 1.274-1.096 2.056-2.342 2.342a16.176 16.176 0 0 1-3.476.41c-1.298.008-2.594-.05-3.891-.043-1.385.007-3.081-.122-4.15-1.163-.94-.914-1.07-2.346-1.197-3.584a2804.539 2804.539 0 0 1-.507-4.916l-.94-9.11-.608-5.896-.03-.291c-.073-.704-.566-1.392-1.342-1.357-.665.03-1.42.6-1.343 1.357l.45 4.37.933 9.04.795 7.705c.05.492.099.986.152 1.478.293 2.689 2.326 4.138 4.843 4.546 1.47.239 2.977.288 4.47.312 1.912.031 3.844.106 5.726-.244 2.788-.517 4.88-2.397 5.178-5.314l.256-2.527.849-8.36.924-9.104.424-4.173a.973.973 0 0 1 .247-.555.957.957 0 0 1 .525-.297c.798-.157 1.56-.425 2.127-1.037.903-.976 1.082-2.248.763-3.53Zm-29.99.9c.012-.006-.01.099-.02.148-.002-.074.002-.14.02-.149Zm.078.604c.006-.005.025.021.045.052-.03-.028-.05-.05-.046-.052Zm.076.101c.027.047.042.077 0 0Zm.152.125h.004c0 .005.007.01.01.014a.102.102 0 0 0-.014-.014Zm26.757-.187c-.286.275-.718.403-1.144.467-4.782.717-9.634 1.08-14.469.92-3.46-.12-6.883-.508-10.309-.997-.335-.048-.699-.11-.93-.36-.435-.47-.221-1.42-.108-1.99.104-.521.302-1.217.916-1.291.96-.114 2.073.295 3.022.44a56.616 56.616 0 0 0 3.44.423c4.91.452 9.904.382 14.794-.28a61.06 61.06 0 0 0 2.664-.421c.788-.143 1.662-.41 2.138.414.327.562.37 1.313.32 1.948a1.09 1.09 0 0 1-.334.727Z" fill="#0D0C22"/><path fill-rule="evenodd" clip-rule="evenodd" d="M59.258 28.463a4.43 4.43 0 0 1-1.15 1.405 6.19 6.19 0 0 1-1.711.972 8.536 8.536 0 0 1-1.966.504c-.66.085-1.3.078-1.92-.024-.62-.101-1.148-.308-1.582-.62l.489-5.129a18.45 18.45 0 0 1 1.698-.48 15.415 15.415 0 0 1 2.105-.351 8.944 8.944 0 0 1 2.049.024c.642.085 1.151.292 1.523.62.202.187.373.39.512.609.14.219.225.445.256.679.077.656-.023 1.253-.303 1.791ZM52.162 17.54A5.73 5.73 0 0 1 53.337 17a7.267 7.267 0 0 1 1.408-.327c.48-.062.95-.07 1.408-.024.457.047.86.176 1.21.386.349.211.608.516.778.914.171.398.218.902.14 1.51a2.135 2.135 0 0 1-.57 1.23 4.07 4.07 0 0 1-1.163.843 7.49 7.49 0 0 1-1.454.538c-.512.133-1.005.231-1.478.293-.473.063-.884.102-1.233.117-.35.016-.578.024-.687.024l.466-4.965Zm9.61 7.61a4.798 4.798 0 0 0-1-1.44 3.741 3.741 0 0 0-1.49-.9c.248-.204.492-.524.733-.961.24-.437.446-.913.617-1.428.17-.516.286-1.035.348-1.558.062-.523.039-.972-.069-1.346-.264-.937-.68-1.67-1.245-2.202a4.607 4.607 0 0 0-1.978-1.1c-.753-.203-1.582-.246-2.49-.129-.907.117-1.834.347-2.78.69 0-.077.008-.159.023-.245.015-.085.023-.175.023-.27 0-.233-.116-.436-.349-.608a1.605 1.605 0 0 0-.802-.304 1.45 1.45 0 0 0-.885.199c-.287.164-.485.464-.593.9a676.34 676.34 0 0 0-.372 4.38 563.12 563.12 0 0 1-.396 4.59 3190.406 3190.406 0 0 1-.419 4.601 581.48 581.48 0 0 1-.419 4.391c.047.422.163.75.35.984.186.234.403.375.651.421.248.047.508.004.78-.129.27-.132.507-.363.71-.69.62.343 1.318.566 2.094.667a9.213 9.213 0 0 0 2.361 0 10.97 10.97 0 0 0 2.362-.574 9.945 9.945 0 0 0 2.117-1.053 7.04 7.04 0 0 0 1.606-1.44c.434-.54.72-1.12.86-1.745.14-.64.179-1.28.117-1.92a5.574 5.574 0 0 0-.465-1.78ZM84.47 37.515a16.635 16.635 0 0 1-.36 1.628c-.157.57-.339 1.089-.548 1.557-.21.468-.442.846-.697 1.136-.257.288-.532.41-.827.363-.233-.032-.38-.18-.442-.445-.062-.266-.062-.594 0-.984s.182-.831.36-1.323a11.552 11.552 0 0 1 1.525-2.857 6.182 6.182 0 0 1 1.024-1.112c.077.094.112.328.104.703-.008.374-.054.82-.14 1.334Zm7.888-10.163a1.16 1.16 0 0 0-.768-.398c-.303-.031-.61.14-.92.515a5.509 5.509 0 0 1-.767 1.077 9.9 9.9 0 0 1-.966.937c-.333.28-.651.523-.954.726-.302.203-.539.351-.71.445-.062-.5-.097-1.038-.104-1.616a26.186 26.186 0 0 1 .035-1.756 22.226 22.226 0 0 1 .29-2.553 16.801 16.801 0 0 1 .64-2.529c0-.437-.1-.792-.302-1.065-.202-.273-.446-.445-.733-.515s-.582-.032-.884.117c-.303.148-.563.418-.78.807a159.515 159.515 0 0 1-.64 1.733 31.348 31.348 0 0 1-.814 1.956 19.774 19.774 0 0 1-1.012 1.932c-.373.624-.78 1.179-1.222 1.662a5.293 5.293 0 0 1-1.442 1.136 3.202 3.202 0 0 1-1.687.363c-.28-.078-.481-.289-.606-.632-.124-.343-.197-.773-.22-1.288-.024-.515 0-1.081.07-1.698a24.504 24.504 0 0 1 .278-1.838 29.24 29.24 0 0 1 .385-1.733c.14-.546.27-1.007.395-1.382.186-.452.186-.831 0-1.135a1.35 1.35 0 0 0-.768-.61 1.702 1.702 0 0 0-1.023.012c-.358.11-.614.352-.768.726-.264.64-.505 1.358-.722 2.155-.217.796-.392 1.62-.523 2.47a18.666 18.666 0 0 0-.221 2.53c-.001.054.001.106.001.16-.338.907-.66 1.593-.967 2.052-.396.594-.842.851-1.338.773-.217-.093-.36-.312-.43-.656-.07-.343-.094-.764-.07-1.264.023-.5.081-1.065.174-1.698a36.048 36.048 0 0 1 .35-1.967c.14-.68.286-1.362.441-2.049.155-.687.295-1.335.42-1.944-.016-.546-.175-.963-.478-1.253-.302-.288-.725-.401-1.268-.339-.372.156-.648.36-.826.609-.179.25-.322.57-.43.96-.063.203-.156.609-.28 1.218a55.526 55.526 0 0 1-.476 2.096 45.226 45.226 0 0 1-.687 2.47 17.882 17.882 0 0 1-.884 2.33c-.326.695-.683 1.253-1.07 1.675-.388.42-.807.593-1.257.515-.248-.047-.407-.305-.477-.773-.07-.469-.082-1.046-.035-1.733s.14-1.44.28-2.26a78.962 78.962 0 0 1 .43-2.33 102.2 102.2 0 0 1 .663-3.067c0-.453-.101-.816-.303-1.09-.201-.272-.446-.444-.732-.515-.288-.07-.582-.03-.885.118-.302.148-.562.418-.78.807-.077.422-.178.91-.302 1.464a69.588 69.588 0 0 0-.36 1.71 89.36 89.36 0 0 0-.326 1.72c-.1.563-.175 1.055-.221 1.476-.031.328-.066.73-.105 1.206-.039.476-.058.98-.058 1.51 0 .532.038 1.058.117 1.581.077.523.217 1.003.418 1.44.201.437.485.796.85 1.077.364.281.826.437 1.384.469.574.03 1.074-.012 1.5-.13.428-.116.815-.3 1.164-.55.35-.249.667-.546.954-.89.287-.343.57-.717.85-1.123.263.593.604 1.054 1.023 1.381.419.328.861.524 1.327.586.464.062.938-.004 1.42-.2.48-.194.914-.526 1.302-.995a7.25 7.25 0 0 0 .722-.974c.096.169.198.332.313.482.38.5.897.844 1.548 1.031a4.56 4.56 0 0 0 2.047.094 6.489 6.489 0 0 0 1.908-.68 9.002 9.002 0 0 0 1.688-1.182c.52-.46.972-.94 1.36-1.44a22.77 22.77 0 0 0-.023 1.019c0 .32-.008.667-.023 1.042a13.249 13.249 0 0 0-2.199 1.967c-.69.764-1.295 1.58-1.815 2.447-.52.866-.927 1.744-1.22 2.634-.296.89-.44 1.721-.432 2.494.008.773.19 1.448.547 2.026.357.577.938.99 1.745 1.24.838.266 1.574.274 2.21.024.637-.25 1.19-.663 1.664-1.241.473-.578.861-1.276 1.164-2.096.302-.82.543-1.674.72-2.564.18-.89.292-1.764.338-2.622a18.67 18.67 0 0 0 0-2.296c1.334-.561 2.428-1.272 3.28-2.13a13.663 13.663 0 0 0 2.118-2.717c.171-.234.23-.515.175-.843a1.64 1.64 0 0 0-.395-.843Zm29.351-1.498c.047-.36.116-.738.21-1.136a9.283 9.283 0 0 1 .349-1.16c.139-.374.302-.698.488-.97.186-.274.384-.47.593-.586.21-.117.423-.106.641.035.232.14.375.437.43.89.054.453 0 .936-.163 1.452-.163.515-.454.999-.873 1.451-.418.453-.985.75-1.698.89-.031-.218-.024-.507.023-.866Zm8.062.96a1.312 1.312 0 0 0-.732-.023c-.233.062-.381.226-.442.492-.125.499-.323 1.01-.594 1.533a8.045 8.045 0 0 1-1 1.487 7.513 7.513 0 0 1-1.338 1.241 5.02 5.02 0 0 1-1.559.773c-.544.172-.993.191-1.35.058a1.693 1.693 0 0 1-.849-.678 3.325 3.325 0 0 1-.454-1.16 8.24 8.24 0 0 1-.163-1.405c.884.063 1.672-.097 2.362-.48a5.587 5.587 0 0 0 1.757-1.522 6.913 6.913 0 0 0 1.093-2.13 9.009 9.009 0 0 0 .419-2.354c.015-.734-.093-1.354-.326-1.862-.232-.507-.547-.902-.942-1.183a2.73 2.73 0 0 0-1.361-.491 3.63 3.63 0 0 0-1.559.21 3.795 3.795 0 0 0-1.617 1.066 6.648 6.648 0 0 0-1.106 1.71 10.962 10.962 0 0 0-.698 2.095c-.17.75-.294 1.487-.372 2.213a21.94 21.94 0 0 0-.12 1.876l-.101.231a13.915 13.915 0 0 1-.838 1.628c-.318.531-.67.976-1.058 1.335-.388.36-.791.484-1.21.375-.248-.062-.384-.352-.407-.867-.023-.515.003-1.155.081-1.92a219.58 219.58 0 0 1 .268-2.482c.1-.89.151-1.74.151-2.553a5.32 5.32 0 0 0-.396-2.025c-.264-.648-.624-1.187-1.081-1.616a3.421 3.421 0 0 0-1.594-.855c-.606-.14-1.257-.047-1.955.281a4.087 4.087 0 0 0-1.663 1.382 17.18 17.18 0 0 0-1.129 1.873 5.613 5.613 0 0 0-.547-1.393 4.504 4.504 0 0 0-.884-1.124 3.986 3.986 0 0 0-1.175-.75 3.573 3.573 0 0 0-1.373-.269c-.465 0-.896.09-1.291.27a4.493 4.493 0 0 0-1.083.69 6.08 6.08 0 0 0-.884.949c-.263.35-.496.698-.697 1.042-.032-.406-.067-.761-.105-1.066a2.537 2.537 0 0 0-.21-.772 1.079 1.079 0 0 0-.43-.48c-.187-.11-.45-.165-.79-.165-.172 0-.343.036-.513.106a1.456 1.456 0 0 0-.454.293 1.236 1.236 0 0 0-.302.456c-.07.18-.09.387-.059.62.015.173.059.38.128.621.07.243.136.559.198.949.062.39.113.862.151 1.416.04.555.05 1.234.035 2.038a38.753 38.753 0 0 1-.174 2.822 66.324 66.324 0 0 1-.477 3.746c-.031.328.093.594.372.797.279.202.597.32.954.35.357.032.694-.03 1.012-.186.318-.157.5-.43.547-.82.046-.734.136-1.514.268-2.342.131-.827.294-1.647.488-2.459.194-.811.415-1.584.663-2.318.248-.734.524-1.382.826-1.944.303-.562.617-1.01.943-1.346.325-.336.666-.504 1.023-.504.435 0 .772.2 1.013.597.24.399.411.91.511 1.534.101.625.148 1.308.141 2.05-.009.74-.04 1.455-.094 2.142a36.73 36.73 0 0 1-.186 1.838c-.07.539-.12.91-.151 1.113 0 .359.135.643.407.854.271.211.574.336.907.375.334.04.648-.024.943-.188.295-.164.465-.44.512-.83a35.15 35.15 0 0 1 .639-3.384c.272-1.132.582-2.147.932-3.044.348-.898.736-1.632 1.163-2.202.426-.57.88-.855 1.361-.855.248 0 .438.172.57.516.132.343.198.811.198 1.404 0 .438-.035.887-.105 1.347-.07.46-.151.937-.245 1.429a30.68 30.68 0 0 0-.244 1.51 12.17 12.17 0 0 0-.104 1.616c0 .39.038.843.116 1.358.077.515.225 1.003.442 1.463.217.461.516.851.896 1.171.38.32.865.48 1.454.48.884 0 1.668-.19 2.35-.573a5.898 5.898 0 0 0 1.757-1.499c.025-.032.049-.067.073-.099.038.091.071.188.113.275.334.687.788 1.217 1.362 1.592.573.375 1.248.582 2.024.62.775.04 1.62-.105 2.536-.433a7.006 7.006 0 0 0 1.78-.936 6.671 6.671 0 0 0 1.361-1.37c.403-.539.771-1.16 1.106-1.862.333-.703.67-1.506 1.011-2.412a.69.69 0 0 0-.174-.667 1.432 1.432 0 0 0-.652-.41Zm12.65-2.613c-.078.461-.183.969-.315 1.523a18.998 18.998 0 0 1-.5 1.72 7.812 7.812 0 0 1-.744 1.605 4.03 4.03 0 0 1-1.012 1.136 1.847 1.847 0 0 1-1.315.35c-.249-.03-.439-.202-.57-.514-.132-.312-.202-.71-.21-1.195a9.13 9.13 0 0 1 .128-1.592 9.896 9.896 0 0 1 .431-1.698c.194-.554.43-1.065.709-1.534.279-.468.601-.83.966-1.089a1.91 1.91 0 0 1 1.198-.363c.434.016.9.234 1.397.656-.032.203-.086.535-.163.995Zm8.271 1.792a.992.992 0 0 0-.744-.082c-.256.07-.439.308-.547.714-.062.437-.202.952-.419 1.546a9.92 9.92 0 0 1-.802 1.686c-.319.53-.683.972-1.094 1.323-.412.351-.849.511-1.315.48-.388-.031-.66-.23-.814-.597-.156-.367-.237-.827-.244-1.382-.009-.554.046-1.178.162-1.873a32.08 32.08 0 0 1 .419-2.073c.163-.686.329-1.346.501-1.978.17-.633.309-1.167.418-1.604.125-.39.086-.722-.116-.996a1.687 1.687 0 0 0-.756-.585 1.692 1.692 0 0 0-.92-.094c-.31.055-.511.223-.605.503-.915-.796-1.795-1.225-2.64-1.287a3.83 3.83 0 0 0-2.339.562c-.714.437-1.345 1.069-1.896 1.897a12.002 12.002 0 0 0-1.338 2.704 12.073 12.073 0 0 0-.64 2.986c-.085 1.015-.02 1.94.198 2.775.217.835.6 1.518 1.152 2.049.55.53 1.299.796 2.245.796.419 0 .822-.086 1.21-.257a6.247 6.247 0 0 0 1.931-1.347c.248-.258.442-.472.582-.644.108.562.287 1.038.535 1.429.248.39.531.71.849.96.318.249.652.433 1.001.55.349.117.686.175 1.012.175.729 0 1.411-.25 2.048-.749a8.435 8.435 0 0 0 1.71-1.838 11.77 11.77 0 0 0 1.245-2.295c.326-.804.543-1.518.651-2.143.109-.234.089-.48-.058-.737a1.427 1.427 0 0 0-.582-.574Zm41.883 12.928c-.132.53-.337.98-.616 1.346-.279.367-.629.559-1.048.574-.263.016-.465-.125-.605-.421-.139-.297-.236-.68-.291-1.148a12.305 12.305 0 0 1-.069-1.569 31.89 31.89 0 0 1 .069-1.71c.039-.561.086-1.085.14-1.568.054-.484.097-.858.128-1.124.527.062.966.292 1.315.69.349.399.616.87.802 1.417.187.547.295 1.136.326 1.768a6.03 6.03 0 0 1-.151 1.745Zm-8.423 0c-.132.53-.337.98-.617 1.346-.279.367-.628.559-1.047.574-.264.016-.465-.125-.604-.421-.14-.297-.237-.68-.291-1.148a12.113 12.113 0 0 1-.07-1.569 34.67 34.67 0 0 1 .209-3.278c.054-.484.097-.858.128-1.124a2 2 0 0 1 1.314.69c.35.399.617.87.804 1.417a6.44 6.44 0 0 1 .325 1.768 5.995 5.995 0 0 1-.151 1.745Zm-8.644-13.3a7.115 7.115 0 0 1-.105.994c-.054.29-.128.472-.221.55-.171-.093-.38-.335-.628-.726a4.974 4.974 0 0 1-.582-1.323 3.743 3.743 0 0 1-.128-1.451c.054-.476.299-.847.733-1.113.17-.093.318-.058.442.106s.225.402.303.714c.077.312.131.671.162 1.077.032.406.039.796.024 1.171Zm-2.059 4.67a4.166 4.166 0 0 1-.803.668 3.654 3.654 0 0 1-.908.422c-.31.094-.589.117-.837.07-.698-.14-1.234-.445-1.605-.913a3.468 3.468 0 0 1-.71-1.651 6.157 6.157 0 0 1 .034-2.026 7.619 7.619 0 0 1 .629-2.002 6.175 6.175 0 0 1 1.07-1.592c.419-.445.876-.722 1.373-.832-.186.796-.248 1.62-.186 2.47.062.852.264 1.652.605 2.4.217.454.477.867.779 1.242.303.375.671.695 1.106.96a3.095 3.095 0 0 1-.547.785Zm25.746-4.437c.046-.359.116-.738.209-1.136.093-.398.21-.784.349-1.159.14-.375.303-.698.489-.971s.384-.469.593-.586c.21-.117.423-.105.64.035.233.14.376.437.43.89.055.453 0 .937-.162 1.452-.163.515-.454 1-.873 1.452-.418.453-.985.75-1.698.89-.031-.219-.024-.507.023-.867Zm9.377 0c.046-.359.116-.738.209-1.136.094-.398.21-.784.35-1.159.139-.375.302-.698.488-.971s.384-.469.593-.586c.21-.117.423-.105.64.035.233.14.376.437.431.89.054.453 0 .937-.163 1.452-.163.515-.454 1-.873 1.452-.418.453-.985.75-1.698.89-.031-.219-.024-.507.023-.867Zm8.714 1.37a1.445 1.445 0 0 0-.651-.41 1.314 1.314 0 0 0-.734-.023c-.232.062-.38.226-.442.492-.124.5-.322 1.01-.593 1.533a8.078 8.078 0 0 1-1 1.487 7.519 7.519 0 0 1-1.338 1.242 5.02 5.02 0 0 1-1.559.772c-.543.172-.993.192-1.35.059a1.694 1.694 0 0 1-.849-.679 3.325 3.325 0 0 1-.454-1.16 8.331 8.331 0 0 1-.163-1.404c.884.062 1.672-.098 2.362-.48a5.591 5.591 0 0 0 1.757-1.523 6.93 6.93 0 0 0 1.093-2.13 9.011 9.011 0 0 0 .419-2.354c.015-.734-.093-1.354-.326-1.862-.232-.507-.546-.901-.942-1.182a2.734 2.734 0 0 0-1.361-.492 3.633 3.633 0 0 0-1.559.21 3.801 3.801 0 0 0-1.617 1.066 6.656 6.656 0 0 0-1.105 1.71 10.893 10.893 0 0 0-.699 2.095 18.91 18.91 0 0 0-.371 2.213 21.687 21.687 0 0 0-.126 2.024 9.438 9.438 0 0 1-.189.388 8.034 8.034 0 0 1-1.001 1.487 7.451 7.451 0 0 1-1.338 1.242 5.005 5.005 0 0 1-1.558.772c-.544.172-.994.192-1.35.059a1.694 1.694 0 0 1-.849-.679 3.325 3.325 0 0 1-.454-1.16 8.23 8.23 0 0 1-.163-1.404c.884.062 1.671-.098 2.362-.48a5.588 5.588 0 0 0 1.756-1.523 6.911 6.911 0 0 0 1.094-2.13 9.011 9.011 0 0 0 .419-2.354c.015-.734-.093-1.354-.326-1.862-.233-.507-.547-.901-.942-1.182a2.734 2.734 0 0 0-1.362-.492 3.637 3.637 0 0 0-1.559.21 3.798 3.798 0 0 0-1.616 1.066 6.66 6.66 0 0 0-1.106 1.71 10.96 10.96 0 0 0-.698 2.095 19.128 19.128 0 0 0-.372 2.213c-.044.41-.073.807-.095 1.196-.15.129-.296.258-.452.385a13.982 13.982 0 0 1-1.686 1.183c-.591.351-1.203.64-1.839.866a7.33 7.33 0 0 1-1.954.41l1.442-15.55c.093-.327.047-.616-.139-.865a1.412 1.412 0 0 0-.722-.516 1.501 1.501 0 0 0-.942.024c-.334.11-.609.359-.826.749a37.42 37.42 0 0 0-.337 2.435 197.71 197.71 0 0 0-.35 3.372 667.99 667.99 0 0 0-.348 3.77 251.581 251.581 0 0 0-.303 3.63l-.011.145c-.136.115-.267.232-.408.347a13.993 13.993 0 0 1-1.687 1.183 10.391 10.391 0 0 1-1.838.866 7.328 7.328 0 0 1-1.955.41l1.443-15.55c.093-.327.047-.616-.139-.865a1.416 1.416 0 0 0-.722-.516 1.505 1.505 0 0 0-.943.024c-.333.11-.608.359-.825.749a37.42 37.42 0 0 0-.337 2.435 188.043 188.043 0 0 0-.35 3.372 773.525 773.525 0 0 0-.349 3.77 265.943 265.943 0 0 0-.302 3.63l-.005.066c-.244.114-.51.214-.798.297a4.191 4.191 0 0 1-1 .153c.062-.282.112-.594.151-.937.038-.343.07-.703.093-1.078.023-.374.031-.749.023-1.123a13.4 13.4 0 0 0-.058-1.031 8.94 8.94 0 0 0-.43-1.908c-.21-.601-.493-1.104-.849-1.51a2.636 2.636 0 0 0-1.339-.82c-.535-.14-1.159-.094-1.872.14-1.056-.14-2.006-.042-2.851.293a6.229 6.229 0 0 0-2.199 1.463 7.99 7.99 0 0 0-1.524 2.26 9.747 9.747 0 0 0-.791 2.67 9.633 9.633 0 0 0-.092 1.156 6.934 6.934 0 0 1-2.072 2.555 5.808 5.808 0 0 1-1.315.75 6.26 6.26 0 0 1-1.163.351 3.243 3.243 0 0 1-1.163.024c-.373-.063-.715-.242-1.024-.539-.249-.218-.438-.57-.57-1.054a7.384 7.384 0 0 1-.233-1.65c-.023-.617 0-1.262.07-1.933s.189-1.307.361-1.908c.17-.601.387-1.14.651-1.616.263-.476.573-.816.93-1.019.202.032.327.152.373.363.046.211.058.46.035.75-.023.289-.058.585-.105.89a5.29 5.29 0 0 0-.07.76c.078.422.229.75.454.984.225.234.477.371.756.41.279.04.555-.027.826-.2.272-.17.493-.444.663-.819.016.016.039.024.07.024l.326-2.974c.093-.406.031-.765-.186-1.077a1.204 1.204 0 0 0-.861-.539c-.45-.656-1.059-1.003-1.827-1.042-.767-.04-1.555.215-2.361.76-.497.36-.935.856-1.315 1.488a9.61 9.61 0 0 0-.931 2.107 13.419 13.419 0 0 0-.511 2.448 12.962 12.962 0 0 0-.059 2.505c.062.812.206 1.577.431 2.295.224.718.539 1.32.942 1.803.341.422.729.73 1.163.925.434.196.888.316 1.361.363.474.047.943.027 1.408-.058a7.823 7.823 0 0 0 1.327-.363c.543-.203 1.101-.46 1.675-.773a10.296 10.296 0 0 0 1.652-1.124c.277-.23.545-.48.803-.75.117.294.249.578.407.844a4.966 4.966 0 0 0 1.698 1.71c.713.436 1.59.646 2.63.631a6.188 6.188 0 0 0 3.094-.855c.947-.553 1.722-1.37 2.328-2.447.906 0 1.797-.15 2.673-.449l-.021.286c-.062.827-.094 1.389-.094 1.686a45.044 45.044 0 0 1-.104 1.908 44.968 44.968 0 0 0-.104 2.388c-.016.835.015 1.679.092 2.53.078.85.241 1.623.489 2.318a4.965 4.965 0 0 0 1.059 1.768c.457.484 1.058.773 1.803.866.791.11 1.473-.031 2.047-.421.574-.39 1.04-.925 1.397-1.604.357-.68.608-1.464.756-2.354.147-.89.19-1.783.128-2.681a10.289 10.289 0 0 0-.489-2.54c-.264-.797-.628-1.453-1.094-1.968.28-.078.613-.226 1.001-.445.388-.218.787-.464 1.199-.737.101-.068.2-.138.301-.207-.038.553-.057.948-.057 1.179-.015.515-.05 1.15-.105 1.908a44.968 44.968 0 0 0-.104 2.388c-.016.835.015 1.679.093 2.53.077.85.24 1.623.488 2.318a4.965 4.965 0 0 0 1.059 1.768c.457.484 1.058.773 1.803.866.791.11 1.474-.031 2.048-.421.573-.39 1.039-.925 1.396-1.604.356-.68.608-1.464.756-2.354.147-.89.19-1.783.128-2.681a10.289 10.289 0 0 0-.489-2.54c-.263-.797-.628-1.453-1.094-1.968.28-.078.614-.226 1.001-.445.388-.218.787-.464 1.199-.737.213-.142.426-.289.637-.44.08.764.252 1.434.526 1.997.333.687.787 1.218 1.361 1.593.574.374 1.249.581 2.025.62.775.039 1.62-.106 2.536-.434a7.01 7.01 0 0 0 1.78-.936 6.686 6.686 0 0 0 1.361-1.37l.068-.096c.072.218.152.428.246.623.334.687.787 1.218 1.361 1.593.574.374 1.249.581 2.025.62.775.039 1.621-.106 2.536-.434a6.976 6.976 0 0 0 1.78-.936 6.711 6.711 0 0 0 1.361-1.37c.403-.539.771-1.16 1.105-1.862a31.91 31.91 0 0 0 1.013-2.412.69.69 0 0 0-.175-.667Z" fill="#0D0C23"/></g><defs><clipPath id="a"><path fill="#fff" d="M.5.67h217v48H.5z"/></clipPath></defs></svg>