<svg fill="none" xmlns="http://www.w3.org/2000/svg" viewBox="0 0 56 50"><path d="M40.354 2.103c.173-1.028.276-1.58.276-1.58L37.861 0a109.46 109.46 0 0 0-.686 5.084c-.82 7.85.034 15.125.923 22.703.114.97.228 1.945.34 2.926.021.201.048.424.077.664.313 2.623.871 7.298-2.352 7.819-2.097.293-3.85-1.702-3.791-3.735l.001-.036a9.33 9.33 0 0 1 .291-1.994c.54-2.137 1.451-4.305 2.738-6.101l-.528-.418c-3.01 3.37-6.609 10.216-1.546 13.382.864.542 1.952.837 3.045.717 4.893-.699 4.485-6.78 4.211-10.505-.148-1.852-.364-3.688-.58-5.52-.411-3.495-.821-6.976-.754-10.525v-.001l.002-.102c.03-1.435.105-2.868.193-4.3l.017-.24c.09-1.172.191-2.268.298-3.257-1.839-1.048-1.482-3.936.594-4.458Z" fill="#fff"/><path d="M25.41 16.174h8.988c.035.65.076 1.298.123 1.943h-9.294a101.19 101.19 0 0 1 .182-1.943Zm-.446 9.237h7.785a21.867 21.867 0 0 0-1.492 1.943h-6.2a51.834 51.834 0 0 1-.093-1.943Zm17.904 1.943a246.275 246.275 0 0 0-.22-1.943H54v1.943H42.868Zm-6.68 7.295h-1.153a7.228 7.228 0 0 0-.09.885v.014c-.004.253.114.582.353.83a.813.813 0 0 0 .312.214h.246l.001-.004.003-.006.002-.004a.106.106 0 0 1 .004-.008c.088-.14.224-.491.287-1.172a8.932 8.932 0 0 0 .035-.749Zm-7.905 0h-2.475a207.32 207.32 0 0 1 .219 1.943h2.234a9.53 9.53 0 0 1 .022-1.943ZM52.9 36.592h-9.805c.102-.644.16-1.3.188-1.943h9.617v1.943Zm-34.775 7.294h1.188a8.431 8.431 0 0 1-.03.474c-.063.68-.2 1.032-.287 1.172l-.009.018c-.005.014-.007.018-.063.028-.11.01-.284-.02-.496-.239-.239-.247-.357-.576-.353-.829v-.014a7.524 7.524 0 0 1 .05-.61Zm-2.48-9.237a22.207 22.207 0 0 0-1.443 1.943H2.1V34.65h13.544Zm2.026-7.295a106.752 106.752 0 0 1-.128-1.943H1v1.943h16.67Zm-.13-11.18a65.575 65.575 0 0 0-.096 1.943H2.1v-1.943H17.54Zm-6.154 27.712a9.248 9.248 0 0 0 .035 1.943h-6.72v-1.943h6.685Zm15.011 0a16.546 16.546 0 0 1-.22 1.943h24.125v-1.943H26.397Zm15.514-25.769a49.854 49.854 0 0 1-.083-1.943h11.071v1.943H41.911Z" fill="#fff"/><path d="M23.76 9.485s-.104.552-.276 1.58c-2.077.522-2.434 3.41-.594 4.458a104.712 104.712 0 0 0-.299 3.257l-.016.24a104.404 104.404 0 0 0-.193 4.3l-.002.102v.001c-.068 3.55.342 7.03.754 10.524.216 1.833.432 3.67.58 5.52.274 3.727.681 9.807-4.212 10.506-1.093.12-2.18-.175-3.045-.717-5.063-3.166-1.464-10.011 1.547-13.381l.528.417c-1.287 1.796-2.198 3.965-2.738 6.101a9.33 9.33 0 0 0-.291 1.995l-.002.036c-.059 2.032 1.695 4.027 3.791 3.734 3.224-.52 2.665-5.196 2.352-7.819a53.731 53.731 0 0 1-.076-.663c-.112-.982-.226-1.957-.34-2.926-.89-7.578-1.743-14.854-.924-22.704.189-1.702.419-3.393.687-5.084l2.769.522Z" fill="#fff"/></svg>