<svg fill="none" xmlns="http://www.w3.org/2000/svg" viewBox="0 0 56 51"><path d="M40.354 2.166c.173-1.028.276-1.58.276-1.58L37.861.064a109.46 109.46 0 0 0-.686 5.083c-.82 7.85.034 15.126.923 22.704.114.97.228 1.944.34 2.926.021.2.048.423.077.663.313 2.623.871 7.299-2.352 7.819-2.097.293-3.85-1.701-3.791-3.734l.001-.036a9.33 9.33 0 0 1 .291-1.994c.54-2.137 1.451-4.305 2.738-6.102l-.528-.417c-3.01 3.37-6.609 10.216-1.546 13.381.864.542 1.952.838 3.045.718 4.893-.7 4.485-6.78 4.211-10.506-.148-1.851-.364-3.688-.58-5.52-.411-3.494-.821-6.976-.754-10.524v-.002l.002-.102c.03-1.435.105-2.867.193-4.3l.017-.24c.09-1.171.191-2.267.298-3.256-1.839-1.049-1.482-3.937.594-4.459Z" fill="#000"/><path d="M25.41 16.238h8.988c.035.65.076 1.297.123 1.943h-9.294c.058-.683.119-1.333.182-1.943Zm-.446 9.236h7.785a21.88 21.88 0 0 0-1.492 1.944h-6.2a51.818 51.818 0 0 1-.093-1.943Zm17.904 1.944a246.786 246.786 0 0 0-.22-1.943H54v1.943H42.868Zm-6.68 7.294h-1.153a7.228 7.228 0 0 0-.09.886v.013c-.004.253.114.582.353.83a.813.813 0 0 0 .312.215h.246l.001-.005.003-.006.002-.004a.134.134 0 0 1 .004-.007c.088-.14.224-.492.287-1.172a8.934 8.934 0 0 0 .035-.75Zm-7.905 0h-2.475a207.32 207.32 0 0 1 .219 1.944h2.234a9.53 9.53 0 0 1 .022-1.944ZM52.9 36.657h-9.805c.102-.645.16-1.3.188-1.943h9.617v1.943ZM18.124 43.95h1.188a8.431 8.431 0 0 1-.03.474c-.063.68-.2 1.032-.287 1.172-.005.007-.007.013-.009.018-.005.014-.007.018-.063.028-.11.01-.284-.02-.496-.24-.239-.247-.357-.576-.353-.829v-.013a7.52 7.52 0 0 1 .05-.61Zm-2.48-9.238a22.177 22.177 0 0 0-1.443 1.944H2.1v-1.944h13.544Zm2.026-7.294a106.74 106.74 0 0 1-.128-1.943H1v1.943h16.67Zm-.13-11.18a65.575 65.575 0 0 0-.096 1.943H2.1v-1.943H17.54ZM11.387 43.95a9.248 9.248 0 0 0 .035 1.943h-6.72V43.95h6.685Zm15.011 0a16.548 16.548 0 0 1-.22 1.943h24.125v-1.944H26.397Zm15.514-25.77a49.854 49.854 0 0 1-.083-1.942h11.071v1.943H41.911Z" fill="#000"/><path d="M23.76 9.548s-.104.553-.276 1.58c-2.077.522-2.434 3.41-.594 4.459a104.72 104.72 0 0 0-.299 3.257l-.016.24a104.396 104.396 0 0 0-.193 4.3l-.002.102c-.068 3.55.342 7.03.754 10.525.216 1.833.432 3.669.58 5.52.274 3.726.681 9.807-4.212 10.506-1.093.12-2.18-.176-3.045-.717-5.063-3.166-1.464-10.012 1.547-13.382l.528.417c-1.287 1.797-2.198 3.965-2.738 6.102a9.33 9.33 0 0 0-.291 1.994l-.002.036c-.059 2.033 1.695 4.028 3.791 3.734 3.224-.52 2.665-5.195 2.352-7.819a53.509 53.509 0 0 1-.076-.663c-.112-.981-.226-1.956-.34-2.926-.89-7.578-1.743-14.854-.924-22.703.189-1.702.419-3.394.687-5.084l2.769.522Z" fill="#000"/></svg>