<svg fill="none" xmlns="http://www.w3.org/2000/svg" viewBox="0 0 232 29"><path d="M57.401 14.492c2.285 0 4.262-1.677 4.262-4.196 0-2.466-1.89-4.018-4.37-4.018h-3.16v8.214h3.268Zm-8.813-12.93 11.05.066c3.593 0 8.18 2.826 8.18 8.49 0 5.976-4.097 9.31-8.754 9.31l-4.93-.093v6.977h-5.546V1.562Zm34.853 7.494-2.664 9.608h5.33l-2.666-9.608ZM79.446 23.46l-.791 2.852H72.21l8.68-24.386h5.224l8.68 24.386H88.23l-.792-2.852h-7.992ZM104.07 7.013h-5.442V2.101h16.509v4.912h-5.5v19.299h-5.567V7.013Zm28.895 7.497c2.184 0 3.95-1.626 3.95-4.074 0-2.633-1.881-4.132-4.15-4.132h-3.24v8.206h3.44ZM123.903 2.1l10.21-.048c4.008 0 8.497 2.96 8.497 8.502 0 3.69-1.204 6.486-4.645 8.088l4.848 7.67h-6.335l-4.456-6.959h-2.498v6.959h-5.621V2.1Zm28.126 0h15.087v4.22h-8.854v5.447h8.873v4.876h-8.873v5.45h8.903v4.219h-15.136V2.1Zm37.131 19.56c4.2 0 6.995-3.456 6.995-7.505 0-4.083-2.802-7.642-7.061-7.642-4.207 0-6.995 3.452-6.995 7.504 0 4.092 2.804 7.643 7.061 7.643Zm-.068 5.314c-4.171 0-7.832-1.837-10.137-4.776-1.706-2.175-2.643-4.954-2.643-8.04 0-3.282.993-6.234 2.89-8.489 2.319-2.755 5.93-4.472 9.959-4.472 3.711 0 7.109 1.455 9.421 3.843 2.211 2.286 3.422 5.429 3.422 8.975 0 3.678-1.422 7.132-3.769 9.463-2.307 2.292-5.51 3.496-9.143 3.496ZM211.604 2.1h5.858l8.48 15.325V2.1h5.558v24.21h-5.936l-8.447-15.391v15.392h-5.513V2.1Z" fill="#FF424D"/><path fill-rule="evenodd" clip-rule="evenodd" d="M.5.42h5.117v28H.5v-28Zm18.65.04c5.773 0 10.453 4.699 10.453 10.495 0 5.795-4.68 10.494-10.453 10.494-5.774 0-10.454-4.699-10.454-10.494C8.696 5.159 13.376.46 19.15.46Z" fill="#FF424D"/></svg>