<svg fill="none" xmlns="http://www.w3.org/2000/svg" viewBox="0 0 170 46"><g clip-path="url('#a')"><path d="M63.354 9.248h-9.376a1.3 1.3 0 0 0-1.287 1.094l-3.792 23.914a.778.778 0 0 0 .773.897h4.476a1.3 1.3 0 0 0 1.287-1.095l1.023-6.45a1.3 1.3 0 0 1 1.286-1.095h2.968c6.176 0 9.74-2.973 10.672-8.864.42-2.577.018-4.602-1.196-6.02-1.332-1.557-3.696-2.381-6.834-2.381Zm1.082 8.734c-.513 3.346-3.084 3.346-5.57 3.346h-1.414l.993-6.249a.78.78 0 0 1 .771-.656h.649c1.693 0 3.29 0 4.115.96.493.573.644 1.424.456 2.6Zm26.945-.107h-4.49a.781.781 0 0 0-.772.656l-.199 1.249-.314-.453c-.972-1.403-3.14-1.872-5.303-1.872-4.961 0-9.199 3.737-10.024 8.98-.43 2.616.18 5.117 1.672 6.861 1.369 1.604 3.326 2.272 5.656 2.272 3.997 0 6.214-2.557 6.214-2.557l-.2 1.24c-.075.475.292.9.77.9h4.045a1.3 1.3 0 0 0 1.287-1.094l2.427-15.285a.775.775 0 0 0-.77-.897Zm-6.259 8.691c-.433 2.552-2.469 4.265-5.065 4.265-1.304 0-2.346-.416-3.015-1.205-.664-.782-.916-1.896-.705-3.137.405-2.53 2.475-4.298 5.032-4.298 1.275 0 2.311.42 2.994 1.216.684.803.955 1.924.76 3.16Zm30.171-8.691h-4.512a1.31 1.31 0 0 0-1.079.568l-6.223 9.117-2.637-8.76a1.307 1.307 0 0 0-1.25-.925h-4.434a.778.778 0 0 0-.742 1.028l4.97 14.506-4.672 6.56a.777.777 0 0 0 .637 1.228h4.506c.428 0 .828-.207 1.071-.557l15.007-21.545a.777.777 0 0 0-.642-1.22Z" fill="#253B80"/><path d="M130.231 9.248h-9.377a1.3 1.3 0 0 0-1.286 1.094l-3.793 23.914a.777.777 0 0 0 .771.897h4.812a.91.91 0 0 0 .899-.766l1.077-6.779a1.298 1.298 0 0 1 1.286-1.095h2.966c6.178 0 9.741-2.973 10.673-8.864.421-2.577.017-4.602-1.197-6.02-1.331-1.557-3.693-2.381-6.831-2.381Zm1.082 8.734c-.512 3.346-3.082 3.346-5.569 3.346h-1.414l.994-6.249a.778.778 0 0 1 .771-.656h.648c1.692 0 3.291 0 4.116.96.492.573.641 1.424.454 2.6Zm26.944-.107h-4.487a.777.777 0 0 0-.771.656l-.199 1.249-.315-.453c-.972-1.403-3.138-1.872-5.302-1.872-4.961 0-9.197 3.737-10.023 8.98-.427 2.616.18 5.117 1.672 6.861 1.37 1.604 3.325 2.272 5.655 2.272 3.997 0 6.214-2.557 6.214-2.557l-.2 1.24c-.075.475.292.9.773.9h4.043a1.3 1.3 0 0 0 1.286-1.094l2.428-15.285a.78.78 0 0 0-.774-.897Zm-6.259 8.691c-.43 2.552-2.469 4.265-5.065 4.265-1.301 0-2.346-.416-3.015-1.205-.664-.782-.913-1.896-.705-3.137.407-2.53 2.475-4.298 5.032-4.298 1.275 0 2.311.42 2.994 1.216.687.803.958 1.924.759 3.16ZM163.55 9.904l-3.849 24.352a.778.778 0 0 0 .771.897h3.869c.643 0 1.188-.463 1.287-1.095l3.795-23.913a.779.779 0 0 0-.771-.898h-4.332a.782.782 0 0 0-.77.657Z" fill="#179BD7"/><path d="m9.962 39.8.717-4.53-1.597-.036H1.455l5.3-33.427a.441.441 0 0 1 .148-.262.434.434 0 0 1 .283-.104h12.86c4.269 0 7.215.884 8.753 2.628.721.818 1.18 1.673 1.403 2.614.233.987.237 2.167.01 3.606l-.017.105v.921l.72.407c.608.32 1.09.687 1.46 1.107.618.7 1.017 1.589 1.185 2.643.174 1.084.117 2.374-.168 3.834-.33 1.68-.861 3.144-1.58 4.34a8.946 8.946 0 0 1-2.502 2.728c-.954.674-2.088 1.185-3.37 1.512-1.242.322-2.658.484-4.211.484h-1c-.717 0-1.412.257-1.957.716a3.01 3.01 0 0 0-1.02 1.811l-.076.408-1.266 7.984-.058.293c-.015.093-.041.14-.08.17a.213.213 0 0 1-.131.048H9.96Z" fill="#253B80"/><path d="M31.598 10.5a22.19 22.19 0 0 1-.131.75c-1.696 8.66-7.498 11.652-14.908 11.652h-3.773a1.83 1.83 0 0 0-1.811 1.544L9.043 36.63l-.547 3.454a.962.962 0 0 0 .953 1.11h6.692c.792 0 1.465-.572 1.59-1.35l.066-.338 1.26-7.953.08-.436a1.607 1.607 0 0 1 1.591-1.353h1c6.484 0 11.56-2.618 13.043-10.194.62-3.165.299-5.808-1.341-7.667-.496-.56-1.112-1.025-1.832-1.404Z" fill="#179BD7"/><path d="M29.824 9.796a13.427 13.427 0 0 0-.8-.204c-.276-.06-.559-.113-.85-.16a21.058 21.058 0 0 0-3.325-.241h-10.08a1.609 1.609 0 0 0-1.589 1.353l-2.144 13.508-.061.394a1.83 1.83 0 0 1 1.81-1.544h3.774c7.41 0 13.212-2.993 14.907-11.652.051-.256.094-.506.132-.75a9.063 9.063 0 0 0-1.394-.585 12.43 12.43 0 0 0-.38-.119Z" fill="#222D65"/><path d="M13.18 10.544c.084-.536.43-.974.894-1.195.213-.1.447-.157.695-.157h10.08c1.194 0 2.309.078 3.326.242a13.457 13.457 0 0 1 2.03.481c.5.165.965.36 1.394.585.505-3.2-.004-5.38-1.743-7.353C27.938.975 24.476.045 20.046.045H7.186C6.283.045 5.51.7 5.37 1.59L.014 35.36a1.1 1.1 0 0 0 1.09 1.271h7.939l1.993-12.58 2.144-13.507Z" fill="#253B80"/></g><defs><clipPath id="a"><path fill="#fff" d="M0 .045h170v45H0z"/></clipPath></defs></svg>